<?xml version="1.0" encoding="utf-8"?>
<!-- Generator: Adobe Illustrator 16.0.0, SVG Export Plug-In . SVG Version: 6.00 Build 0)  -->
<!DOCTYPE svg PUBLIC "-//W3C//DTD SVG 1.1//EN" "http://www.w3.org/Graphics/SVG/1.1/DTD/svg11.dtd">
<svg version="1.1" id="Layer_1" xmlns="http://www.w3.org/2000/svg" xmlns:xlink="http://www.w3.org/1999/xlink" x="0px" y="0px"
	 width="600px" height="600px" viewBox="0 0 600 600" enable-background="new 0 0 600 600" xml:space="preserve">
<g>
	<path fill="#4E4F50" d="M2.722,300.825c0,164.457,133.313,297.774,297.763,297.774c164.465,0,297.774-133.317,297.774-297.774
		S464.95,3.058,300.485,3.058C136.036,3.058,2.722,136.368,2.722,300.825z M530.448,300.825
		c0,127.003-102.952,229.955-229.963,229.955c-126.999,0-229.952-102.952-229.952-229.955S173.486,70.878,300.485,70.878
		C427.496,70.878,530.448,173.822,530.448,300.825z"/>
	<path fill="#4E4F50" d="M289.938,125.271V299.75c0,5.115,4.148,9.254,9.258,9.254c5.104,0,9.248-4.139,9.248-9.254V125.271
		c0-5.114-4.144-9.262-9.248-9.262C294.086,116.008,289.938,120.156,289.938,125.271z"/>
	<path fill="#4E4F50" d="M136.973,367.29c-4.708,1.966-8.23,4.287-7.855,5.2c0.38,0.906,4.511,0.038,9.225-1.919l161.068-67.115
		c4.712-1.959,8.237-4.278,7.858-5.192c-0.372-0.906-4.508-0.039-9.221,1.927L136.973,367.29z"/>
	<path fill="#4E4F50" d="M303.619,287.484c-7.479,0-13.538,6.059-13.538,13.536c0,7.467,6.06,13.526,13.538,13.526h114.39
		c7.476,0,13.535-6.06,13.535-13.526c0-7.477-6.06-13.536-13.535-13.536H303.619z"/>
	<path fill="#4E4F50" d="M278.841,299.301c0,12.72,10.319,23.03,23.045,23.03c12.729,0,23.044-10.31,23.044-23.03
		c0-12.738-10.315-23.053-23.044-23.053C289.161,276.248,278.841,286.563,278.841,299.301z"/>
</g>
</svg>
