<?xml version="1.0" encoding="utf-8"?>
<!-- Generator: Adobe Illustrator 16.0.0, SVG Export Plug-In . SVG Version: 6.00 Build 0)  -->
<!DOCTYPE svg PUBLIC "-//W3C//DTD SVG 1.1//EN" "http://www.w3.org/Graphics/SVG/1.1/DTD/svg11.dtd">
<svg version="1.1" id="Layer_1" xmlns="http://www.w3.org/2000/svg" xmlns:xlink="http://www.w3.org/1999/xlink" x="0px" y="0px"
	 width="600px" height="600px" viewBox="0 0 600 600" enable-background="new 0 0 600 600" xml:space="preserve">
<g>
	<path fill-rule="evenodd" clip-rule="evenodd" fill="#909DAC" d="M62.817,400.455c-0.483,0.12-1.129,0.482-1.272,0.883
		c-0.272,0.771-0.242,1.649-0.441,3.428c-1.039,2.241,1.498,4.357,2.457,6.915c0.113,0.3,1.223,0.616,1.438,0.428
		c2.114-1.841,4.167-3.756,6.146-5.739c0.281-0.283,0.312-1.212,0.064-1.565C69.18,401.917,66.864,399.442,62.817,400.455z"/>
	<path fill-rule="evenodd" clip-rule="evenodd" fill="#909DAC" d="M54.174,408.473c-0.575-1.911-2.097-3.24-4.421-2.953
		c-0.508,0.162-1.096,0.225-1.485,0.533c-0.14,0.112,0.054,0.979,0.335,1.229c1.759,1.569,2.861,3.307,2.357,5.827
		c-0.212,1.065-0.098,2.232,0.082,3.314c0.061,0.375,0.746,0.884,1.177,0.917c2.138,0.171,4.536-2.691,3.438-4.29
		C54.633,411.56,54.635,410.01,54.174,408.473z"/>
	<path fill-rule="evenodd" clip-rule="evenodd" fill="#909DAC" d="M82.338,425.83c-0.438-0.563-0.915-1.55-1.837-1.014
		c-0.684,0.404-1.704,1.621-1.608,1.75c1.449,1.945-0.64,3.47-0.486,5.198c0.021,0.229,0.311,0.438,0.606,0.825
		c0.61-0.35,1.246-0.713,1.883-1.075C84.015,429.753,84.367,428.449,82.338,425.83z"/>
	<path fill-rule="evenodd" clip-rule="evenodd" fill="#909DAC" d="M45.236,382.144c-0.304-0.07-1.012,0.417-1.072,0.733
		c-0.156,0.813-0.052,1.679-0.052,2.521c0.049,0,0.099,0,0.147,0c0,1.129-0.082,2.262,0.032,3.378
		c0.072,0.729,0.579,0.991,1.024,0.712c1.537-0.966,2.39-2.291,2.253-4.19C47.485,384.14,46.369,382.402,45.236,382.144z"/>
	<path fill-rule="evenodd" clip-rule="evenodd" fill="#909DAC" d="M184.097,497.26c0.04-0.021-0.027-0.463-0.152-0.63
		c-1.776-2.374-4.557-2.832-6.891-4.035c-0.523,0.758-0.995,1.157-1.05,1.603c-0.054,0.454,0.219,1.309,0.502,1.38
		c0.682,0.17,1.345,0.379,2.014,0.569c0.303,0.376,0.646,0.737,1.184,1.059c0.223-0.268,0.145-0.496-0.006-0.717
		c1.003,0.342,1.987,0.746,2.93,1.283C182.929,497.946,183.612,497.479,184.097,497.26z"/>
	<path fill-rule="evenodd" clip-rule="evenodd" fill="#909DAC" d="M58.365,420.956c-0.927-0.316-2.165,0.604-2.27,1.695
		c-0.2,2.033,0.352,3.141,1.612,3.236c0.883,0.063,3.009-1.366,3.216-2.166C61.116,422.976,59.649,421.394,58.365,420.956z"/>
	<path fill-rule="evenodd" clip-rule="evenodd" fill="#909DAC" d="M74.593,414.93c-0.1-0.214-0.367-0.346-0.556-0.518
		c-0.177,0.213-0.502,0.421-0.508,0.638c-0.052,2.161-0.067,4.327-0.046,6.489c0.002,0.233,0.248,0.608,0.442,0.654
		c0.193,0.041,0.481-0.226,0.695-0.396c2.18-1.733,2.245-2.162,0.908-4.669C75.152,416.429,74.932,415.649,74.593,414.93z"/>
	<path fill-rule="evenodd" clip-rule="evenodd" fill="#909DAC" d="M64.499,394.561c-0.029-0.232-0.361-0.628-0.521-0.611
		c-1.299,0.107-2.738,2.219-2.545,3.719c0.031,0.242,0.32,0.45,0.492,0.671C63.09,398.181,64.667,395.91,64.499,394.561z"/>
	<path fill-rule="evenodd" clip-rule="evenodd" fill="#909DAC" d="M64.977,430.395c-0.214,0.704-0.537,1.462,0.35,2.032
		c0.35-0.204,1.062-0.524,1.033-0.624c-0.202-0.684-0.558-1.316-0.866-1.971C65.316,430.02,65.044,430.174,64.977,430.395z"/>
	<path fill-rule="evenodd" clip-rule="evenodd" fill="#909DAC" d="M201.512,537.004c0.479,0.004,0.961-0.391,1.443-0.607
		c-0.473-0.233-0.943-0.643-1.422-0.65c-0.137-0.005-0.277,0.074-0.414,0.13c-0.793-0.48-1.866-0.954-2.146-0.458
		c0.442,0.241,0.602,0.536,0.367,0.898c0.617,0.267,1.139,0.429,1.57,0.484C201.11,536.903,201.31,537.004,201.512,537.004z"/>
	<path fill-rule="evenodd" clip-rule="evenodd" fill="#909DAC" d="M104.68,147.67c-0.291,0.165-0.387,0.668-0.529,1.098
		c0.421-0.11,0.894-0.179,1.102-0.45C105.583,147.891,105.155,147.399,104.68,147.67z"/>
	<path fill-rule="evenodd" clip-rule="evenodd" fill="#909DAC" d="M104.151,148.768c-0.077,0.018-0.16,0.035-0.231,0.06
		c0,0.056,0,0.115,0,0.17c0.055-0.005,0.111-0.014,0.165-0.023C104.109,148.913,104.128,148.836,104.151,148.768z"/>
	<path fill-rule="evenodd" clip-rule="evenodd" fill="#909DAC" d="M102.864,150.046c0.059,0.227,0.625,0.321,1.052,0.452
		c0-0.5,0.002-1,0.004-1.5C103.301,149.08,102.642,149.171,102.864,150.046z"/>
	<path fill-rule="evenodd" clip-rule="evenodd" fill="#909DAC" d="M103.916,150.498c-0.002,0.071-0.002,0.141-0.002,0.212
		c0.033-0.008,0.068-0.01,0.102-0.017c0.023-0.046,0.042-0.102,0.065-0.144C104.033,150.531,103.97,150.515,103.916,150.498z"/>
	<path fill-rule="evenodd" clip-rule="evenodd" fill="#909DAC" d="M46.386,197.351c-0.048,0.009-0.103,0.508-0.029,0.546
		c0.342,0.177,0.712,0.299,1.077,0.435C47.356,197.764,47.296,197.178,46.386,197.351z"/>
	<path fill-rule="evenodd" clip-rule="evenodd" fill="#909DAC" d="M47.433,198.332c0.013,0.095,0.023,0.191,0.042,0.283
		c0.083,0.018,0.158,0.008,0.239,0.021c-0.006-0.081-0.06-0.129-0.059-0.215C47.581,198.394,47.508,198.359,47.433,198.332z"/>
	<path fill-rule="evenodd" clip-rule="evenodd" fill="#909DAC" d="M39.838,210.253c0.197-0.186,0.398-0.371,0.595-0.558
		c-0.305-0.815-0.716-0.852-1.129-0.059C39.259,209.726,39.648,210.042,39.838,210.253z"/>
	<path fill-rule="evenodd" clip-rule="evenodd" fill="#909DAC" d="M34.478,217.867c-0.221,0.045-0.325,0.637-0.462,1.077
		c0.487,0.001,0.976,0.004,1.464,0.004C35.369,218.371,35.329,217.688,34.478,217.867z"/>
	<path fill-rule="evenodd" clip-rule="evenodd" fill="#909DAC" d="M32.29,220.651c-0.075,0-0.15,0-0.225-0.001l0,0
		c-0.016,0.093-0.029,0.191-0.041,0.289c0.082-0.031,0.158-0.069,0.239-0.102C32.261,220.766,32.286,220.718,32.29,220.651z"/>
	<path fill-rule="evenodd" clip-rule="evenodd" fill="#909DAC" d="M33.773,219.15c-0.887,0.114-1.416,0.579-1.483,1.501
		c0.494,0.006,0.988,0.013,1.481,0.019C33.771,220.164,33.773,219.658,33.773,219.15z"/>
	<path fill-rule="evenodd" clip-rule="evenodd" fill="#909DAC" d="M32.024,220.938c-0.342,0.136-0.69,0.26-1.01,0.436
		c-0.071,0.037-0.021,0.506,0.015,0.51C31.878,222.015,31.953,221.48,32.024,220.938z"/>
	<path fill-rule="evenodd" clip-rule="evenodd" fill="#909DAC" d="M132.294,485.543c0.167-0.159,0.458-0.309,0.466-0.476
		c0.01-0.167-0.262-0.35-0.41-0.525c-0.165,0.251-0.33,0.496-0.494,0.746C132.002,485.371,132.148,485.455,132.294,485.543z"/>
	<path fill-rule="evenodd" clip-rule="evenodd" fill="#909DAC" d="M159.029,493.557c0.258,0.646,0.623,0.758,0.931,0.329
		c0.089-0.126,0.036-0.354,0.048-0.533c-0.159-0.097-0.365-0.3-0.467-0.259C159.33,493.182,158.997,493.473,159.029,493.557z"/>
	<path fill-rule="evenodd" clip-rule="evenodd" fill="#909DAC" d="M189.874,532.93c-0.021,0.162,0.279,0.371,0.437,0.559
		c0.198-0.166,0.398-0.338,0.596-0.503c-0.175-0.193-0.348-0.384-0.521-0.58C190.203,532.581,189.899,532.738,189.874,532.93z"/>
	<path fill-rule="evenodd" clip-rule="evenodd" fill="#909DAC" d="M221.657,536.366c-0.126-0.165-0.347-0.554-0.424-0.528
		c-0.787,0.271-0.814,0.679-0.077,1.063C221.213,536.929,221.482,536.555,221.657,536.366z"/>
	<path fill-rule="evenodd" clip-rule="evenodd" fill="#909DAC" d="M497.633,101.2c0.837-1.393,0.382-3.352-1.592-5.67
		C494.559,96.706,497.379,99.342,497.633,101.2z"/>
	<path fill-rule="evenodd" clip-rule="evenodd" fill="#909DAC" d="M303.332,30.472c-3.389-0.318,4.148-0.897,0.091-1.626
		c0.101,1.182-3.432,0.086-4.852,0.331C297.856,30.487,302.582,31.649,303.332,30.472z"/>
	<path fill-rule="evenodd" clip-rule="evenodd" fill="#909DAC" d="M191.014,40.26c-2.489,0.823-2.741,1.918-1.958,3.133
		C191.515,42.57,191.778,41.477,191.014,40.26z"/>
	<path fill-rule="evenodd" clip-rule="evenodd" fill="#909DAC" d="M338.045,33.046c-1.778,0.154-3.016,0.752-5.036,0.695
		c0.046-1.195-12.008-3.911-14.315-2.014c6.269,0.913,11.987,1.608,17.76,2.705c2.899,0.502,5.823,1.01,8.856,1.537
		c3.023,0.612,6.164,1.246,9.504,1.918c-1.315-1.924-4.531-2.536-7.876-2.993C343.584,34.452,340.069,34.371,338.045,33.046z"/>
	<path fill-rule="evenodd" clip-rule="evenodd" fill="#909DAC" d="M316.152,28.213c-3.249-0.309-3.482,1.445-6.919,0.991
		c1.221,1.352-2.628,1.813-0.166,2.165C310.313,29.566,314.678,29.891,316.152,28.213z"/>
	<path fill-rule="evenodd" clip-rule="evenodd" fill="#909DAC" d="M34.277,216.469c0.978-3.972,2.206-6.454,3.118-8.614
		c-0.685-0.186-1.696,2.176-2.437,4.476C34.208,214.626,34.019,216.94,34.277,216.469z"/>
	<path fill-rule="evenodd" clip-rule="evenodd" fill="#909DAC" d="M163.7,97.947c1.498-1.008,2.148-0.21,3.778-1.509
		C167.278,95.192,162.715,97.058,163.7,97.947z"/>
	<path fill-rule="evenodd" clip-rule="evenodd" fill="#909DAC" d="M351.299,7.849l2.091,0.496c0.291-0.631-0.638-0.973-0.425-1.585
		c-1.316-0.263-2.391-0.321-2.937,0.052C352.09,7.188,352.411,7.459,351.299,7.849z"/>
	<path fill-rule="evenodd" clip-rule="evenodd" fill="#909DAC" d="M369.034,49.149l2.982,1.037
		C372.809,48.737,369.234,47.958,369.034,49.149z"/>
	<path fill-rule="evenodd" clip-rule="evenodd" fill="#909DAC" d="M382.313,37.336c-0.416-0.51-3.785-2.166-4.414-1.562
		C379.639,36.07,381.014,38.03,382.313,37.336z"/>
	<path fill-rule="evenodd" clip-rule="evenodd" fill="#909DAC" d="M384.874,53.631c-1.832-0.708-3.36-1.047-4.41-0.829
		C381.904,53.038,384.87,55.087,384.874,53.631z"/>
	<path fill-rule="evenodd" clip-rule="evenodd" fill="#909DAC" d="M392.701,52.842c0.767-0.437-0.566-1.25-1.808-1.697
		c-1.267-0.371-2.408-0.409-1.142,0.425C390.66,50.749,391.081,52.6,392.701,52.842z"/>
	<path fill-rule="evenodd" clip-rule="evenodd" fill="#909DAC" d="M393.859,53.373c2.516,1.349,3.099,0.883,4.665,2.16
		C399.44,54.519,393.946,52.405,393.859,53.373z"/>
	<path fill-rule="evenodd" clip-rule="evenodd" fill="#909DAC" d="M424.124,67.626c-1.259-1.06-1.729-1.083-2.25-2.595
		c-0.236,0.415-1.141-0.287-1.462-0.023C420.783,65.689,422.783,67.984,424.124,67.626z"/>
	<path fill-rule="evenodd" clip-rule="evenodd" fill="#909DAC" d="M442.251,42.658c-1.533-0.623-4.516-3.449-4.69-1.949
		C439.353,41.691,441.651,43.495,442.251,42.658z"/>
	<path fill-rule="evenodd" clip-rule="evenodd" fill="#909DAC" d="M441.118,86.089c1.883,1.466,3.424,2.912,4.648,4.315
		C446.124,89.377,442.459,86.245,441.118,86.089z"/>
	<path fill-rule="evenodd" clip-rule="evenodd" fill="#909DAC" d="M467.8,86.328c1.309,1.1,2.517,1.952,3.475,2.112
		C470.771,87.068,468.688,86.087,467.8,86.328z"/>
	<path fill-rule="evenodd" clip-rule="evenodd" fill="#909DAC" d="M475.026,106.953c-1.27-1.306-3.465-2.759-2.827-3.587
		c0.986,0.613,2.507,2.876,3.115,2.349c-2.207-3.946-7.414-4.958-11.258-7.73C465.968,100.969,472.474,105.717,475.026,106.953z"/>
	<path fill-rule="evenodd" clip-rule="evenodd" fill="#909DAC" d="M521.925,126.327c1.183,1.675,2.453,0.835,2.286,0.042
		l-1.274-1.699C522.074,124.973,523.09,126.179,521.925,126.327z"/>
	<path fill-rule="evenodd" clip-rule="evenodd" fill="#909DAC" d="M533.661,157.756c-3.041-2.808-2.086-4.632-4.943-7.427
		C528.559,151.629,532.104,158.834,533.661,157.756z"/>
	<path fill-rule="evenodd" clip-rule="evenodd" fill="#909DAC" d="M547.89,185.997c0.559-0.3,1.083-0.321,1.574,0.06
		c-1.925-3.461-2.415-6.64-4.581-9.305c0.241,1.146-2.101-0.398-2.808-2.458c-0.333,0.285-0.971,0.356-0.671,1.102
		C543.832,179.486,547.173,180.188,547.89,185.997z"/>
	<path fill-rule="evenodd" clip-rule="evenodd" fill="#909DAC" d="M550.938,183.868l1.266,3.251
		C553.612,187.675,551.568,182.408,550.938,183.868z"/>
	<path fill-rule="evenodd" clip-rule="evenodd" fill="#909DAC" d="M550.035,192.573c0.458-0.32,1.32-0.283,1.086-1.21
		c-1.906,0.652-0.028-3.859-2.148-3.582C549.397,189.48,549.539,190.053,550.035,192.573z"/>
	<path fill-rule="evenodd" clip-rule="evenodd" fill="#909DAC" d="M528.563,451.949c-1.232,0.713-0.658,1.713-2.349,3.524
		c0.479,1.429,3.082,0.1,2.832-1.55c-0.569,0.633-1.232,1.112-1.813,1.366C527.005,454.636,529.122,452.521,528.563,451.949z"/>
	<path fill-rule="evenodd" clip-rule="evenodd" fill="#909DAC" d="M421.479,548.097c2.653-1.675,5.36-2.883,5.086-3.887
		c-1.916,1.99-5.507,2.553-6.697,3.887C420.654,547.746,421.408,547.443,421.479,548.097z"/>
	<path fill-rule="evenodd" clip-rule="evenodd" fill="#909DAC" d="M356.056,573.009c1.574-0.533,2.869-1.129,3.14-1.945
		C357.388,571.555,354.817,571.859,356.056,573.009z"/>
	<path fill-rule="evenodd" clip-rule="evenodd" fill="#909DAC" d="M293.843,583.596c-5.236,0.704-7.868,0.459-12.09,0.727
		c3.484,0.758,8.336,1.302,11.41,0.023C291.886,584.233,293.452,583.951,293.843,583.596z"/>
	<path fill-rule="evenodd" clip-rule="evenodd" fill="#909DAC" d="M286.667,581.223c1.528-0.787,4.19-1.217,5.552-2.254
		C288.967,579.348,287.297,579.182,286.667,581.223z"/>
	<path fill-rule="evenodd" clip-rule="evenodd" fill="#909DAC" d="M281.03,581.406c1.431-0.842,2.899,1.299,4.938,0.157
		c0.098-0.895-0.389-1.512-1.433-1.853c-1.937,0.387-3.755,0.836-6.325,0.866c0.602,1.303,0.075,0.891,0.691,2.194
		c-1.148-0.149-1.92,0.417-0.712,0.699c0.894-0.961,4.165-0.628,4.96-1.637C282.318,581.752,281.146,581.831,281.03,581.406z"/>
	<path fill-rule="evenodd" clip-rule="evenodd" fill="#909DAC" d="M269.584,584.909c3.526,2.22,0.159,0.483,2.868,0.138
		c1.679-0.222,4.055,0.819,5.019-0.521C274.166,584.866,272.586,584.175,269.584,584.909z"/>
	<path fill-rule="evenodd" clip-rule="evenodd" fill="#909DAC" d="M247.426,582.779c2.395,0.213,8.518,0.909,7.908,0.351
		C252.151,582.659,249.248,582.352,247.426,582.779z"/>
	<path fill-rule="evenodd" clip-rule="evenodd" fill="#909DAC" d="M237.908,578.094c1.764,0.229,2.281-0.336,3.528,0.534
		C242.319,577.295,237.443,576.558,237.908,578.094z"/>
	<path fill-rule="evenodd" clip-rule="evenodd" fill="#909DAC" d="M231.173,571.146c2.387,0.035,2.895,0.742,4.188,0.338
		C234.901,571.122,230.765,569.775,231.173,571.146z"/>
	<path fill-rule="evenodd" clip-rule="evenodd" fill="#909DAC" d="M223.088,530.498c1.824,0.463,3.647,1.791,5.305,1.32l0.237-1.063
		C226.256,530.148,225.058,530.697,223.088,530.498z"/>
	<path fill-rule="evenodd" clip-rule="evenodd" fill="#909DAC" d="M195.252,536.384c2.184,0.271,3.139,1.333,4.349,1.175
		c-0.444-0.246-0.609-0.542-0.375-0.9C197.393,535.992,195.329,535.034,195.252,536.384z"/>
	<path fill-rule="evenodd" clip-rule="evenodd" fill="#909DAC" d="M181.631,542.818c0.66,0.387,0.809,0.809,0.958,1.229
		c2.966,0.287,3.928,0.679,6.159,0.742c-2.734-1.279-3.168-1.037-4.88-2.184C184.353,544.215,181.698,541.944,181.631,542.818z"/>
	<path fill-rule="evenodd" clip-rule="evenodd" fill="#909DAC" d="M171.86,497.359c1.786,0.87,2.728,1.77,3.825,2.662
		c1.2-2.783,4.143,3.081,6.002,0.928c-1.327-0.338-4.299-1.037-3.315-2.377c2.218-0.188,4.976,3.36,5.646,1.486
		c-3.482-1.258-5.75-2.183-7.98-4.436c1.394,2.72-2.037,0.528-0.848,2.853C174.059,498.066,172.007,495.931,171.86,497.359z"/>
	<path fill-rule="evenodd" clip-rule="evenodd" fill="#909DAC" d="M109.57,494.248c-1.612,0.95,0.658,2.537,2.022,2.753
		C109.885,495.852,111.268,495.396,109.57,494.248z"/>
	<path fill-rule="evenodd" clip-rule="evenodd" fill="#909DAC" d="M87.382,484.68c1.833,0.571-2.391-4.515-3.667-4.998
		c-0.032,1.574-0.695,2.945,0.006,4.791c0.935-0.176,1.664-1.096,2.937-0.034c0.15,0.85,4.294,5.911,4.938,4.707
		C90.473,487.338,88.946,486.234,87.382,484.68z"/>
	<path fill-rule="evenodd" clip-rule="evenodd" fill="#909DAC" d="M190.637,512.342c0.048,0.004,0.083,0.021,0.129,0.029
		c-0.034-0.029-0.071-0.058-0.104-0.088L190.637,512.342z"/>
	<path fill-rule="evenodd" clip-rule="evenodd" fill="#909DAC" d="M317.826,565.028l0.042,0.3c1.116-0.271,2.229-0.541,3.282-0.8
		C320.034,564.695,318.93,564.861,317.826,565.028z"/>
	<path fill-rule="evenodd" clip-rule="evenodd" fill="#909DAC" d="M578.805,291.58c-0.468-7.769-0.926-15.409-1.366-22.763
		c-0.129-1.835-0.254-3.651-0.375-5.448c-0.245-1.793-0.491-3.564-0.729-5.313c-0.491-3.497-0.97-6.904-1.433-10.199
		c-1.754-2.634-1.449-12.616-4.878-14.887c-0.191-3.97-0.224-5.373-1.933-9.003c2.367,1.019-0.92-4.258,0.834-3.932
		c-1.583-2.956-0.933-7.119-2.588-8.137c0.806,4.336,2.529,6.799,1.192,8.539c-0.663-4.129-2.762-8.12-1.953-11.282
		c-1.225-3.052-4.766-8.321-4.291-11.292c-1.683,0.254-1.017-3.707-2.657-5.054c-0.676-0.025-0.487,1.329-0.999,0.408
		c-1.683-2.301-1.451-6.083-3.024-7.908c0.267,0.814,0.503,1.598-0.158,1.602c-1.017-1.903-0.175-2.179-1.195-4.084
		c-1.204,0.259,0.555,3.083,0.532,4.374c1.575,0.91,4.52,8.443,4.065,9.713c-1.42-2.029-2.503-2.445-2.312-5.129
		c-1.091-0.094-0.184,1.586-0.842,1.864c0.816,2.178,1.933,1.801,2.726,4.186c-1.067-0.077-1.983-1.381-2.995-1.818
		c0.786,2.385,1.994,1.244,2.807,3.397c-0.396,0.868-1.854-1.531-1.354,0.519c0.305,0.194,0.501,0.47,0.65,0.779
		c-0.216,0.059-0.433,0.075-0.65,0.184c-0.44,0.222-0.882,0.458-1.319,0.689c0.079-0.3,0.246-0.519,0.554-0.621
		c-1.124-1.785-0.912-2.17-1.116-4.032c-0.824,0.354-0.157,3.278,0.275,4.801c-0.941,0.5-1.883,0.997-2.85,1.439
		c-0.066,0.031-0.255-0.096-0.441-0.271c-0.154-0.62-0.366-1.248-0.617-1.878c-0.066-0.744-0.183-1.435-0.836-1.984
		c-0.821-1.935-1.462-3.787-0.583-5.263c-2.274-1.117-4.845-9.864-4.561-12.203c-0.859,0.163-1.851-0.962-2.683-2.351
		c0-0.496,0.016-0.994,0.082-1.5c0.102-0.698-0.45-0.92-1.208-0.756c-0.495-1.257-0.717-2.324-0.412-2.474
		c-1.054-0.979-2.103-2.024-3.152-3.128c-0.351-0.852-0.691-1.701-1.067-2.553c0.084,0.018,0.163,0.06,0.242,0.066
		c-1.308-2.851-2.698-5.481-4.127-8.041c-0.03-0.046-0.063-0.092-0.092-0.137c-3.137-5.853-6.803-11.521-10.876-16.753
		c-1.408-2.385-2.85-4.898-4.391-7.687c-0.475,0.396-1.058,0.13-1.683-0.45c-0.282-2.737-3.124-5.513-5.415-7.955
		c-0.537-1.879-1.449-3.679-2.624-5.402c0.097-0.138,0.184-0.277,0.333-0.404c-0.816-1.058-1.17-1.202-1.411-1.081
		c-0.346-0.45-0.704-0.898-1.08-1.337c-1.541-1.878-3.224-3.711-4.811-5.551c-1.662-1.78-3.224-3.569-4.461-5.447
		c-3.857-6.03-7.676-12.205-12.013-18.072c-4.498-5.672-9.588-10.988-16.302-14.37c-1.313-1.073-1.396,0.797-2.607-0.048
		c-3.911-3.661-9.135-7.004-14.391-10.538c-5.47-3.218-10.935-6.702-16.137-9.703c-7.244-4.501-13.574-10.27-21.73-13.287
		c-4.781-1.62-9.088-2.753-13.12-3.117c-4.073-0.292-7.818,0.058-11.367,1.172c-7.068-2.98-17.095,0.284-23.471-4.604
		c-1.592,0.197-1.732,1.834-4.349,0.979c-1.879-0.396-1.667-1.25-2.541-1.827c-0.434,1.979,0.658,1.753-0.838,3.14
		c5.49,0.453,7.885,1.45,12.876,0.95c1.216,0.538,1.544,1.277,3.531,1.741c11.08,0.182,24.325,1.202,38.262,5.89
		c13.404,4.705,24.533,14.356,34.355,17.146c1.804,1.464-0.116,2.539,0.958,3.924c5.382,1.468,7.548,6.365,12.899,9.59
		c3.67,2.41,8.218,2.781,12.204,5.904c3.912,3.303,6.618,6.544,9.409,9.924c2.695,3.488,5.44,7.158,9.511,11.405
		c0.021,0.239,0.079,0.483,0.128,0.725c-1.948-1.618-3.344-3.172-6.439-5.555c0.434-0.75,1.616,1.127,2.141,0.691
		c-2.245-2.34-4.244-3.809-5.968-5.301c-1.703-1.514-3.096-3.082-4.345-5.452c-0.933,1.452-3.457-1.466-4.661-0.774
		c2.658,2.523,6.044,5.664,6.019,8.334c-2.595-1.422-2.166-3.767-3.715-3.844c1.615,3.089,3.548,4.738,5.79,6.32
		c2.24,1.572,4.54,3.324,7.098,6.234c-0.333,0.366-0.775,0.329-1.221,0.277c1.308,2.352,3.952,3.907,5.944,5.344
		c0.425,0.677,0.936,1.318,1.406,1.979c-0.333-0.21-0.694-0.379-1.116-0.458c0.45,0.913,0.967,1.85,1.325,2.727
		c-0.375-0.224-0.725-0.352-0.954-0.31c0.463,0.474,0.896,0.941,1.279,1.391c0.099,0.477,0.129,0.929-0.005,1.322
		c-3.395-1.86-6.552-2.761-9.659-3.509c-0.454-0.691-0.815-1.354-1.053-1.979l-0.78,0.756c0.455,0.377,0.771,0.71,1.009,1.021
		c-0.449-0.104-0.896-0.211-1.342-0.313c-0.198-0.205-0.407-0.429-0.62-0.672c0.396-0.392-0.354-2.125-0.875-0.939
		c0.605,0.595,0.729,1.043,0.491,1.379c-0.003-0.002-0.013-0.002-0.013-0.005c-1.065-0.63-2.323-1.035-3.157-1.878
		c-0.924-0.933-1.257-2.424-2.061-3.518c-1.079-1.468-4.271-1.443-4.99,0.212c-0.246,0.554-0.508,1.043-0.796,1.521
		c-0.962-0.506-1.949-1.093-2.957-1.757c0.392-1.81,0.112-3.647-0.667-5.467c-0.12-0.274-0.975-0.29-1.494-0.315
		c-0.213-0.008-0.555,0.234-0.63,0.438c-0.033,0.085-0.07,0.189-0.107,0.289c-1.491-0.639-3.024-1.501-3.399-3.299
		c-0.441,0.454-0.625,0.954-0.467,1.524c1.149,0.759,2.274,1.425,3.599,2.71c-0.013,0.131-0.004,0.242,0.055,0.3
		c0.637,0.652,0.958,1.367,1.179,2.102c-3.017-2.907-5.861-5.325-8.639-7.158c-0.642-0.41-1.267-0.781-1.892-1.147
		c0.084-0.079,0.167-0.158,0.25-0.238c-0.17-0.214-0.342-0.426-0.512-0.641c-0.154,0.152-0.354,0.298-0.454,0.454
		c-2.016-1.142-3.94-2.06-5.807-2.822c-0.683-0.702-1.316-1.373-1.841-1.966c-0.675-0.491-1.434-0.947-2.208-1.393
		c-11.255-10.263-26.033-20.232-42.186-27.52C383.7,56.52,364.735,51.569,348.87,49.834c-3.603-1.697-7.026-2.976-10.775-3.736
		c-3.736-0.818-7.739-1.393-12.546-1.402c-4.915-4.404-14.528-5.012-23.908-4.517c-2.344,0.127-4.684,0.253-6.954,0.376
		c-2.264,0.182-4.457,0.379-6.519,0.458c-4.124,0.125-7.72-0.008-10.372-0.908c-4.486,5.601-19.571,4.22-24.887,2.349
		c-0.654,1.997-2.841,2.901-5.459,3.249c-2.615,0.365-5.649,0.343-8.018,0.173c-0.179-0.774,3.501-2.441-0.32-1.595
		c-1.825,0.198-1.656,1.079-2.504,1.605c-1.896-0.866-4.234-1.227-5.369-2.703c-3.47,0.457-3.687,1.857-7.144,2.324
		c0.639-1.272,0.989-2.637,2.978-3.534c4.767-1.935,5.854-0.423,8.632-0.335c-0.395-1.304-2.13-1.302,0.475-2.307
		c1.91,3.061,5.813-2.002,8.746,0.496c-1.704,0.41-3.018,0.951-3.491,1.789c3.495-1.246,7.749-2.426,10.854-3.455
		c-0.989,0.169-2.41,0.098-1.012-0.4c-16.936-0.641-32.76,2.414-47.658,7.614c-14.929,5.232-28.979,12.583-43.096,21.313
		c-2.209-0.248-5.436,1.231-8.532,2.493c-7.458,6.311-13.158,10.208-11.89,16.386c9.145-6.6,15.947-12.704,32.223-20.908
		c3.976-0.514,7.468,0.08,9.527,2.57c-11.841,7.862-26.909,12.342-37.104,21.669c-1.434,1.346-1.62,2.437-3.063,3.568
		c-8.813,7.037-13.972,9.674-20.166,14.33c-12.022,9.064-22.144,21.716-31.922,33.002c-2.113,2.505-6.187,3.618-6.46,7.818
		c2.948-2.901,5.963-5.968,8.505-9.032c2.6-3.022,4.964-5.869,6.46-8.466c3.322-2.704,7.802-6.346,12.065-10.43
		c4.527-3.83,8.905-8.083,12.806-11.278c2.239-1.239,4.327-2.503,6.31-3.803c2.029-1.241,3.986-2.478,5.863-3.773
		c3.713-2.645,7.329-5.222,11.063-7.881c7.412-5.361,15.484-10.888,26.518-15.648c2.439,1.972,4.694,0.164,8.366-1.314
		c1.188,2.995,4.38,2.895,8.462,1.418c1.863-1.756-2.306-1.376-0.333-2.837c2.695-0.167,5.252-0.181,6.522,1.818
		c-2.122,0.877-4.4,2.229-5.737,2.002c1.809,2.018,6.443-0.433,7.664,2.484c-3.709,2.012-7.148,4.295-10.474,6.556
		c-3.241,2.441-6.4,4.826-9.485,7.25c-6.139,4.934-12.145,9.666-19.187,13.706c-2.595,0.046-4.761-1.081-7.605-0.502
		c-0.061,2.845,5.602,0.329,7.562,1.875c-1.444,2.124-3.697,4.209-5.758,6.396c-0.615,0.677-1.206,1.351-1.777,2.024
		c-0.14,0.036-0.266,0.077-0.411,0.111c-2.65,0.62-5.706,1.532-6.889,4.327c-0.205,0.479-0.456,0.885-0.694,1.312
		c-2.02,1.516-3.828,3.053-5.484,4.605c-0.104,0.035-0.183,0.089-0.289,0.121c-0.173,0.25-0.365,0.445-0.55,0.658
		c-0.321,0.31-0.667,0.617-0.975,0.927c-2.147,1.67-4.866,1.737-7.631,1.702c-0.979-0.013-1.476,0.573-1.763,1.464
		c-0.169,0.52-0.413,1.07-0.779,1.462c-0.868,0.931-1.621,2.6-3.222,0.848c-1.497,0.331-2.263,1.482-2.773,2.741
		c-0.925,2.287-2.203,3.934-4.977,3.761c-0.504-0.031-1.198,0.175-1.525,0.529c-1.901,2.059-4.737,3.332-5.621,6.232
		c-0.575,1.894-2.076,1.477-3.347,1.712c-0.212,0.473-0.37,1.123-0.697,1.22c-4.201,1.262-7.369,3.98-10.347,7.033
		c-1.562,1.599-3.048,3.185-5.293,4.105c-3.018,1.237-6.59,2.364-6.021,6.981c0.073,0.595-0.918,1.384-1.516,1.987
		c-1.003,1.008-2.062,1.968-3.153,2.882c-0.542,0.457-1.052,1.589-1.962,0.515c-0.608-0.717-2.118-1.154-0.954-2.597
		c0.333-0.412,0.598-0.998,0.614-1.514c0.015-0.496-0.334-1.002-0.524-1.504c-0.238,0.156-0.486,0.3-0.713,0.471
		c-1.866,1.398-3.044,3.447-2.892,5.574c0.08,1.12,0.403,1.899-0.484,2.755c-1.423,1.373-2.674,2.93-4.96,2.903
		c-2.72-0.033-0.729,1.51-0.95,2.42c-0.434,1.805-1.452,4.125-2.924,4.888c-1.542,0.8-2.595,1.857-3.416,3.07
		c0.334-1.639,0.729-3.262,1.376-4.834c3.482-9.657,11.948-20.007,15.405-29.575c4.226-1.406,0.841-2.841,5.508-6.343
		c-0.564-1.248-1.246-3.577-2.622-2.903c-0.617-0.177-1.279,0.392-1.945,0.945c-2.058,5.391-5.317,8.475-6.633,13.55
		c-10.101,10.317-15.882,22.617-20.058,35.889c-0.367,0.061-0.741,0.09-1.142,0.025c0.043,0.568,0.325,0.969,0.737,1.237
		c-0.088,0.288-0.186,0.567-0.271,0.854c-0.371,1.275-0.717,2.565-1.066,3.855c-0.712,0.456-1.433,0.904-2.243,1.26
		c-1.46,0.646-2.437,1.931-2.472,3.94c-0.1,5.736-0.212,5.74-5.396,8.757c-0.411,0.242-0.89,0.369-1.343,0.533
		c-0.14,1.004-0.677,1.608-1.681,1.744c0.118,1.36,2.257,2.638-0.01,4.142c-1.154,0.766-2.179,1.897-2.916,3.078
		c-0.314,0.509-0.613,0.983-0.929,1.439c-0.01-0.211-0.041-0.398-0.105-0.545c-0.096,0.341-0.229,0.753-0.356,1.162
		c-0.469,0.561-1.024,1.066-1.816,1.489c-1.625,0.863-0.101,2.424,0.575,3.587c-2.656,3.217,0.061,7.935-3.074,11.019
		c-0.035,2.277,0.34,4.657-0.212,6.8c-0.623,2.412-1.856,4.618-1.441,7.275c0.302,1.95-0.758,3.141-2.656,3.713
		c-0.327,0.098-0.751,1.144-0.587,1.394c1.197,1.82,0.417,3.547-0.05,5.304c2.156,2.701,1.649,5.948,1.543,8.98
		c-0.106,3.012,0.827,6.267-1.506,9.008c-0.444,0.522,0.031,1.699,0.918,2.049c1.075,0.425,2.158,0.688,2.108,2.191
		c-0.037,1.134-0.004,2.278,0.068,3.411c0.309,4.71-0.658,9.568,1.716,14.061c0.297,0.563-0.156,1.604-0.429,2.371
		c-0.248,0.691-1.193,1.166-0.323,2.091c1.322,1.407,0.985,3.19,0.855,4.865c-0.273,3.569-0.221,5.206,0.579,6.655
		c1.217,2.191,2.137,4.565,4.224,6.224c0.829,0.657,1.778,1.757,1.82,2.699c0.121,2.582,0.649,4.973,1.876,7.227
		c-0.529,4.443,1.641,8.093,3.526,11.82c0.242,0.476,0.695,1.324,0.858,1.283c3.278-0.87,3.794,2.553,5.781,3.619
		c2.019,1.083,4.101,2.05,6.183,3.016c0.39,0.946,0.765,1.917,1.139,2.887c-0.135,0.304-0.041,0.534,0.279,0.721
		c0.358,0.95,0.696,1.938,1.031,2.929c-1.21,1.237-2.02,2.382-0.748,4.573c1.347,2.315,1.849,5.152,2.522,7.813
		c0.227,0.892,0.458,1.675,1.283,1.938c1.212,0.383,1.901,0.654,1.114,2.183c-0.619,1.199-0.305,3.027-1.117,3.948
		c-1.984,2.266,0.648,3.516,0.841,5.257c0.101,0.896,1.552,0.82,2.152,0.346c1.556-1.225,2.868-2.766,4.411-4.012
		c1.487-1.199,0.656-2.065,0.17-3.432c-0.95-2.674-0.388-5.557,0.013-8.343c0.031-0.222,0.348-0.404,0.531-0.604
		c0.191,0.213,0.537,0.412,0.549,0.634c0.131,2.257,2.335,3.115,3.207,4.835c0.408,0.809-1.678,2.141-0.021,2.612
		c2.562,0.729,3.582,2.482,4.401,4.673c0.966,2.591,1.922,5.19,3.053,7.706c1.253,2.79,2.709,5.49,4.053,8.238
		c0.362,0.742,0.989,1.571,0.894,2.274c-0.394,2.903,0.97,5.023,3.024,6.603c2.164,1.666,2.197,3.773,2.12,6.09
		c-0.046,1.395-0.269,2.898,0.938,3.978c2.364,2.107,3.151,5.173,4.832,7.668c0.746,1.104,0.887-0.508,1.193-1.054
		c0.235-0.416,0.591-0.762,0.894-1.137c0.175,0.225,0.502,0.453,0.498,0.675c-0.08,3.307,0.86,6.602-0.923,9.9
		c-1.229,2.278-0.489,4.761,0.975,7.16c2.409,3.957,2.729,4.552,6.537,5.84c3.184,1.079,3.745,1.657,3.834,4.619
		c0.077,2.562-0.2,5.161,2.251,6.952c0.438,0.32,0.973,0.903,0.969,1.357c-0.041,3.961,2.928,5.956,5.327,8.301
		c1.806,1.762,3.239,4.037,5.96,4.632c1.219,2.6,3.466,4.395,5.143,6.607c1.872,2.469,5.685,2.648,6.591,6.063
		c0.146,0.555,0.802,0.404,1.126-0.338c0.218-0.499,0.185-1.111,0.423-1.599c0.085-0.176,0.193-0.342,0.308-0.504
		c1.337,1.05,2.812,2.115,4.247,3.173c-1.006-1.04-2.209-2.865-3.438-4.432c0.05-0.116,0.106-0.229,0.129-0.354
		c0.242-1.375-0.763-1.808-1.975-2.15c-0.743-0.211-1.68-0.874-1.916-1.548c-0.163-0.467-0.431-0.85-0.658-1.263
		c0.136,0.017,0.277,0.033,0.466,0.067c-0.312-0.367-0.568-0.571-0.804-0.713c-1.449-2.254-3.645-3.915-5.106-6.14
		c-1.066-1.62-2.891-3.257-2.92-4.911c-0.039-2.036,1.439-4.098,2.253-6.152c0.305-0.762,0.563-1.544,0.89-2.298
		c0.106-0.247,0.325-0.479,0.55-0.63c0.95-0.629,0.262-0.3,0.475,0.642c0.481,2.116,1.618,2.657,3.562,2.604
		c1.841-0.05,1.318,0.833,0.849,2.062c-0.729,1.908,1.352,0.983,2.012,1.574c0.618,0.559,0.756,1.125-0.059,1.179
		c-2.732,0.18-1.947,1.638-1.312,3.12c-1.41,1.325-1.438,2.966-1.031,4.687c0.06,0.258,0.256,0.587,0.475,0.675
		c0.159,0.066,0.504-0.167,0.684-0.346c0.594-0.601,1.479-1.158,1.664-1.879c0.825-3.232,2.766-4.499,6.056-4.499
		c1.25,0.658,2.464,0.976,3.445,0.688c-0.335,0.749-0.527,1.508-0.25,2.304c-0.197-0.134-0.337-0.225-0.396-0.275
		c0.175,0.217,0.371,0.396,0.557,0.596c0.187,0.366,0.447,0.733,0.889,1.116c0.466,0.4,0.319,1.221,0.004,1.991
		c-0.41-0.313-0.852-0.621-1.366-0.941c0.654-1.399-2.216-4.411-2.375-2.665c2.907,0.358-0.095,1.565,0.525,2.194
		c0.989,0.525,1.802,1.57,2.706,2.591c-0.793,1.729-1.514,3.499-2.102,5.308c-0.927,2.853-0.875,5.575,1.908,7.533
		c2.63,1.851,3.321,4.4,2.822,7.443c-0.138,0.829,0.033,1.713-0.08,2.55c-0.05,0.379-0.014,0.725,0.015,1.075
		c-0.433-0.08-0.883-0.18-1.392-0.351c0.517,0.529,1.023,0.903,1.521,1.226c0.061,0.249,0.121,0.499,0.207,0.74
		c-3.357-1.67-6.846-4.452-10.324-7.409c-2.711-2.392-5.496-4.848-8.104-7.148c-2.522-2.395-4.833-4.69-7.077-6.306
		c0.835,0.783-2.616-0.996-3.544-2.67c-0.017,2.962,4.911,8.18,5.654,12.237c2.058,1.892,3.276,3.449,3.53,4.998
		c0.891,0.699,1.677,1.142,2.306,1.267c-1.013,3.003,11.698,11.275,9.168,12.083c2.27,0.929,4.285,1.241,7.376,3.125
		c0.681-0.608-0.615-1.297,0.381-1.879c1.57,1.037,2.891,1.641,3.726,1.403c-3.313-2.199-4.701-0.94-7.63-2.558
		c1.124-0.788-0.159-2.32-1.542-2.44c-1.526,0.487,1.686,1.482,1.008,2.057c-0.858-0.574-0.917,0.48-1.993-0.536
		c2.185-0.85-4.513-3.092-5.032-5.44c0.453-0.496,1.031-0.737,1.875-0.42c3.555,3.206,2.424,0.857,4.475,1.465
		c1.741,1.042,0.856,1.813,2.043,2.799c1.253-1.24,4.194,0.576,6.252,2.217c2.957,1.032,6.016,1.25,8.876,1.592
		c0.156,0.137,0.281,0.249,0.449,0.399c1.631,1.462,3.558,2.595,5.369,3.844c0.446,0.31,1.034,0.035,1.079-0.682
		c0.106-1.663,0.816-3.587-0.371-4.925c-1.6-1.803-2.866-4.294-5.996-4.069c-0.697,0.05-1.724-0.466-2.135-1.049
		c-0.6-0.854-1.162-1.733-1.73-2.607c0.147-0.079,0.334-0.15,0.593-0.196c-0.469-0.2-0.83-0.425-1.156-0.65
		c-0.885-1.386-1.758-2.781-2.643-4.164c0.856-2.312,1.61-4.67,2.62-6.91c0.371-0.824,0.592-1.521,0.335-2.345
		c-0.066-0.218-0.458-0.546-0.469-0.538c-3.093,2.529-3.617-1.107-5.091-2.215c-1.092-0.821-1.135-2.179-1.069-3.471
		c1.852-0.625,2.56,2.911,4.656,2.07c0.186,0.183,0.365,0.375,0.577,0.538c1.161,1.653,3.162,3.697,5.405,5.289
		c2.33,1.695,4.582,3.195,5.644,4.136c-0.171-0.392,1.054-0.903,1.485-0.74c1.16,1.777,7.23,2.586,4.384,3.023
		c1.843,1.271,2.686,0.696,3.744,0.523c-4.538-1.757-8.066-4.688-11.356-5.06c-0.558-2.028-3.392-3.312-5.542-4.708
		c-0.816-0.531-1.556-1.04-2.077-1.536c0.346-0.05,0.783-0.246,1.127-0.37c0.112-0.038,0.212-0.463,0.134-0.613
		c-0.263-0.495-0.717-0.912-0.9-1.429c-0.275-0.771-0.527-1.686,0.418-2.194c0.733-0.396,1.536-0.55,2.337,0.059
		c0.621,0.471,1.333,0.82,2.012,1.212c0.096,0.837-0.031,1.829,0.392,2.441c0.381,0.549,1.375,0.812,2.139,0.928
		c1.137,0.176,2.304,0.028,3.403,0.371c-0.538,0.209-1.154,0.133,0.229,0.88c0.529-0.013,1.104,0.1,1.697,0.265
		c0.219,0.117,0.431,0.188,0.635,0.206c3.211,1.115,6.989,3.977,9.412,4.389c-1.493-0.957-2.928-1.89-4.37-2.828
		c0.86,0.028,1.722,0.038,2.583-0.008c0.206-0.013,0.45-0.3,0.567-0.521c0.054-0.097-0.113-0.409-0.259-0.504
		c-1.191-0.801-2.412-0.788-3.611-0.018c-0.123,0.079-0.187,0.255-0.258,0.412c-0.797-0.52-1.58-1.045-2.366-1.565
		c0.756-0.555,1.506-1.208,2.42-1.033c0.979,0.191,2.007,0.109,3.028,0.033c0.914,0.883,1.887,1.767,3.001,2.271
		c0.307-0.925,2.014,0.85,2.133-0.425c0.108-0.313,0.022-0.617-0.13-0.916c1.7,0.896,3.37,0.787,5.125,0.741
		c1.829-0.051,3.001,0.249,3.666,2.448c0.331,1.096,1.153,1.967,2.242,2.438c-0.154,0.641,0.453,1.421,1.294,2.174
		c-1.829-0.079-2.521,1.67-4.791,0.938c0.939,0.496,1.621,1.028,1.755,1.628c-0.718,0.563-2.301-0.212-2.833,0.658
		c2.111,0.526,4.398,1.904,6.47,3.841c0.741-1.771,3.736,0.362,4.586,0.937c-1.04,0.638-2.602,0.114-3.921-1.024
		c0.321,1.958-2.276-0.52-2.295,0.925c1.947,1.412,9.23,0.158,10.842,4.004c-4.631-2.338-6.173-1.139-9.311-1.695
		c-1.597,1.595-1.085,2.857,0.217,4.015l0.392-0.941c1.175,0.374,1.316,0.88,2.003,1.325c-0.45,0.145-0.897,0.3-0.269,0.671
		c-0.471,0.778-0.733-0.763-2.022-0.967c1.616,1.387,4.326,2.637,5.862,4.135c4.94,1.288,11.484,5.816,15.59,5.949
		c-1.618-1.025-5.67-1.774-5.606-3.891c1.737-1.286,3.018,2.02,4.124,0.688c-2.299-1.317-3.605-0.893-4.101-2.599
		c0.731,0.254,0.704-0.422,1.331-0.292c2.091,1.194,4.319,3.086,3.667,3.974c0.16-1.142,1.338,1.441,1.776,0.236
		c-0.733-0.582-0.466-1.394-0.579-2.115c-2.751-0.87-4.346-2.004-4.407-3.474c3.587-0.305,5.982,1.516,8.67,1.766
		c0.519,1.046,1.133,1.946,1.949,2.758c0.712,0.717,1.5,0.554,2.308,0.254c0.685-0.254,1.054-1.332,2.086-0.696
		c1.41,0.872,3.126,1.405,4.257,2.537c2.618,2.624,5.648,4.437,9.063,5.748c0.023,0.008,0.031,0.051,0.052,0.066
		c-0.094,0.138-0.216,0.259-0.239,0.438c-3.226-0.496-5.565,0.284-8.802-1.407c0.136,0.283,0.389,0.445,0.608,0.642
		c-2.037-0.422-4.121-0.829-6.258-1.195c-1.439,2.212,2.417-0.063,2.276,1.803c-1.375,0.325-5.826-0.653-5.918-2.158
		c1.02,0.46,2.084,0.926,3.071,1.218c-0.312-0.809-1.649-1.305-2.851-1.841c0.011-0.013,0.004-0.025,0.015-0.038
		c-0.061-0.008-0.114-0.025-0.175-0.033c-0.741-0.338-1.407-0.699-1.717-1.175c-0.416,0.199-3.278-0.213-1.992,0.458
		c0.063,0.008,0.165,0.054,0.231,0.071c-4.265-0.954-8.212-2.396-12.042-3.486c-4.832-1.608-9.419-2.887-14.193-2.887
		c-0.935-1.983-2.812-2.762-4.794-2.949c-5.057-1.5-9.002-4.569-11.627-7.152c-1.632,1.938-4.02-3.261-6.396-3.314
		c0.048-0.57-0.323-0.905,0.527-0.954c-5.086-0.351-5.406-5.902-10.75-7.678c2.054,1.546-2.93,0.529,1.108,2.779
		c1.126-0.279-0.613-1.958,0.75-1.241c-1.284,1.795,3.213,3.969,3.848,6.519c3.898-0.041,5.842,3.395,9.932,5.822
		c0.093,0.826,0.073,3.267,1.929,2.929c-2.318-0.916,0.995-0.933,1.349-1.353c2.204,1.032,4.028,2.507,5.833,3.856
		c-1.264,0.262-2.361,0.653-2.961,1.032c0.523,0.222,0.977,0.379,1.479,0.588c-0.021,0.399,0.027,0.582-0.694,1.07
		c2.383,1.629,2.982,0.676,4.342,0.841c-1.757,1.838,6.042,3.845,7.563,5.891c0.186-0.788,0.867-0.826,2.111-0.32
		c-0.41,0.395-0.918,0.308-0.387,1.007c11.229,3.895,21.569,6.869,31.853,9.959c3.791-0.271,14.129,1.138,12.944,4.645
		c12.483,3.986,25.88,4.765,39.919,5.981c4.73-1.683,10.548-0.82,14.861-0.421c-0.635-0.07,1.271-0.9,2.456-0.491
		c4.455,1.47-3.038,2.916-6.743,2.74c3.232-0.046,0.079,2.388-0.567,3.236c-7.066,0.7-12.818,0.371-19.054,1.042
		c-1.645-0.229-1.854-1.171-3.745-1.275c-2.784,1.288-5.527-1.37-8.799-1.432c-1.872-0.066-3.395,1.299-5.259,1.086
		c-2.076-0.245-3.738-2.02-5.5-2.266c-1.054-0.154-2.982,0.201-3.893,0.143c0.098,0.003,0.548-0.646,0.744-0.617
		c-1.885-0.288-2.968,0.566-4.594,0.388c-0.29-0.038-0.287-1.133-0.436-1.207c-2.134-1.129-5.241,0.086-7.74-0.363
		c-1.582-1.457,2.434-1.104-0.25-1.92c-0.418,1.165-3.007,0.315-4.117,0.85c-1.306-2.383-7.047-1.592-5.785-3.313
		c-2.165-0.257-5.209-0.491-8.087-1.162c-2.876-0.682-5.692-1.462-7.568-2.169c0.681,0.308,0.485,0.775,0.28,1.249
		c-4.553-1.641-6.042-2.149-8.743-2.35c0.117-0.346,0.633-0.229,0.849-0.466c-3.44-1.174-6.71-2.1-9.485-3.315
		c-2.77-1.232-5.197-2.417-7.169-3.587c-0.77,0.166-1.399,0.55-2.333,0.501c-1.089-1.551-1.632-1.354-3.08-1.05
		c-0.904-1.172,0.2-2.25-1.739-2.425c1.56,1.874-2.812-0.013-4.122-0.374c0.302-0.65-1.389-1.175-0.535-1.863
		c0.198-0.829,1.857,0.45,2.225-0.128c-3.861-1.746-4.324-0.783-5.356,0.62c1.135,1.2,3.494,2.332,4.804,3.524
		c1.981-1.325,7.746,2.781,8.846,4.182c-0.781-0.363-0.789,0.328-1.473,0.104c0.081-0.43,0.517-0.888-0.156-1.267
		c-4.351,0.42-7.545-2.483-12.082-4.965c0.741,1.945-1.603,0.445-2.322,1.683c4.687,2.273,9.479,4.419,13.691,6.543
		c-1.593-1.521,2.18-0.161,2.959-0.217c0.929,1.021,3.921,3.544,4.957,3.482c-0.683-0.379-0.439-0.828-0.193-1.283
		c1.852,2.75,5.921,3.403,9.278,5.182c-3.823-1.6-2.33-0.12-5.34-0.799c2.55,1.457,3.937,2.456,6.344,1.932l-0.361,1.025
		c3.132,0.495,6.777,2.103,10.657,3.77c1.941,0.821,3.925,1.699,5.944,2.375c2.047,0.574,4.103,1.032,6.104,1.24
		c-0.008,0.442-0.362,0.971,0.381,1.216c7.05,0.396,16.449,5.272,20.132,4.453c0.028,1.441-3.305,1.262-4.746,0.083
		c-0.025,2.574,4.09,1.596,5.818,1.55c-0.104-0.005-0.006,0.717-0.117,0.712c2.687,0.025,4.107-1.391,6.917-1.142
		c3.582,0.317,4.355,2.342,9.085,2.408c-1.208-1.882,4.869,0.566,6.688-0.191c-3.535-0.566-1.513-0.725,1.347-0.446
		c2.865,0.195,6.604,0.518,6.529,1.758c-2.193-0.229-2.549,0.672-4.049,0.87c3.655,0.051,1.912,0.476,2.56,1.945
		c2.98-0.245,3.294,0.783,5.327,0.988c-0.274-1.172-2.966-1.172-3.932-2c0.917,0.058,1.464-0.1,2.01-0.268
		c1.522,0.519,2.495,2.38,3.978,0.91c-0.077,0.628,0.112,1.132,0.627,1.474c-5.413,0.187-9.135,0.342-12.744,0.207
		c-3.597-0.392-7.089-1.07-12.019-2.481c-3.075,0.117-6.138-0.646-9.232-1.319c-3.099-0.684-6.244-1.192-9.53-1.067
		c0.06-0.683-2.126-0.763-1.762-1.528c-8.416-1.017-16.262-6.618-23.514-6.14c1.773,0.742,4.497,1.078,4.328,2.079
		c-2.049-0.473-11.367-2.596-8.58-4.319c-1.587-0.322-3.062-0.521-5.194-1.451c-1.46,1.101,3.278,1.226,2.849,2.158
		c-2.934-0.85-9.625-2.512-11.106-5.136c-5.863-1.92-10.701-4.345-15.108-6.444c-4.369-2.177-8.137-4.401-11.289-7.056
		c-1.2,1.479-0.842-1.316-2.075-1.849c-1.691-0.446-0.267,1.89-1.402,1.274c-0.581-0.338-0.827-0.143-1.335-0.354
		c-2.399-1.029-1.658-1.987-2.976-2.995c-1.185,0.474-3.889-1.508-6.142-2.786c0.91-2.626-4.114-3.615-6.362-5.1
		c-4.711-2.853-9.484-7.151-14.227-10.958c-4.646-3.933-9.279-7.397-12.535-10.247c4.54,5.219,7.072,5.648,10.586,10.418
		c3.642,1.782,7.183,4.573,10.765,7.518c3.665,2.819,7.541,5.565,11.374,7.706c-0.535,0.729,0.356,1.517,0.266,2.263
		c-0.951,0.061-2.476-0.826-3.449-0.801c1.881,2.041,9.17,3.774,11.963,7.898c0.864-0.839,2.464,0.807,3.784,1.574
		c3.08-1.221,12.159,3.265,15.47,5.349c-0.408,0.569-5.597-2.567-3.974-1.055c1.831,0.866,3.752,1.716,3.263,2.723
		c-1.168-0.315-3.447-2.098-3.853-1.403c1.758,1.416,6.055,2.672,4.113,4.312c2.51,1.459-0.315-1.662,2.418-0.475
		c0.027,0.32,0.362,0.625,1.107,0.904c0.173,1.907-1.792,1.104-2.83,1.482c2.447,2.191,3.171,0.879,3.539,0.433
		c1.593,1.787-2.154,0.525-0.798,2.021c2.45,1.838,5.436,2.932,6.852,3.453c-0.71-0.341-0.881-0.75-1.056-1.157
		c1.087,0.633,3.063-0.005,3.259,1.195c-0.788-0.234-1.833-0.737-2.081-0.375c3.308,2.273,9.55,3.565,11.223,5.947
		c1.754,0.109-0.855-1.454,1.089-1.149c3.913,0.829,3.034,2.396,5.515,3.44c0.502-0.384-0.254-2.062,1.154-1.511
		c2.251,1.032,6.598,1.195,5.731,2.751c-0.781,0.076-5.226-1.035-3.564-0.183c3.979,0.325,6.436,1.779,8.458,0.696
		c2.611,1.111-0.952,1.77,1.524,2.624c0.989,0.021,0.418-1.328,1.683-1.07c0.739,0.871,7.591,4.118,4.58,1.878
		c2.799,1.021,3.372,1.104,7.404,2.146c0.212-0.503,0-1.37,0.937-1.266c5.567,1.854,10.997,2.402,16.201,3.099
		c5.221,0.583,10.253,1.27,15.317,2.22c0.311-0.607-0.96-0.986,0.074-1.083c3.821,0.788,6.986,1.454,9.657,0.13
		c0.008,0.499-0.35,0.783-0.731,1.053c2.855-0.524,6.456,0.435,8.982,1.096c-1.924,1.365-5.475-0.013-6.296,2.283
		c4.861,0,6.979-2.916,12.527-2.07c0.933-0.8-1.799-1.416-0.031-1.449c2.107,0.491,2.695,0.412,4.126-0.321
		c-0.009,1.232,2.068,1.258,3.517,1.645c5.423-1.607,10.901,0.541,15.794-1.974c2.762,0.046,5.845,0.063,9.03-0.175
		c3.187-0.374,6.485-0.862,9.701-1.432c6.432-1.139,12.513-2.608,16.69-4.058c0.816,0.816,3.845-0.529,3.795,0.961
		c3.523-2.249,6.231-0.658,8.563-2.944c-0.834,0.176-1.62,0.309-1.537-0.346c1.524-0.721,1.712-0.687,4.582-1.591
		c0.229,0.528,0.262,1.228,1.648,0.684c1.479-2.809,7.485-2.054,10.809-2.601c-0.033-0.732-1.133-0.428-1.682-0.653
		c2.54-0.862,7.105-2.949,8.343-1.357c-1.537,0.979-2.812-0.626-3.391,0.849c0.954-0.241,1.013,0.476,1.675,0.542
		c6.418-4.519,16.369-7.593,21.055-9.112c1.679-0.65,1.941-2.15,2.67-2.466c1.971-0.854,4.22-0.147,7.323-2.329
		c-0.571,0.404,0.896-0.396,2.494-1.221c0.625-0.313,6.739-4.199,9.035-3.698c0.712,0.661-4.611,2.883-2.579,2.512
		c2.183-1.238,2.729-1.988,4.982-2.512c-0.709-0.688-0.083-1.429,0.899-1.979c0.945-0.609,2.241-1.063,2.966-1.037
		c-1.583,1.665-4.323,3.145-4.574,4.594c3.666-2.341,9.572-8.13,10.855-5.023c-0.188-0.317,0.799-1.02,1.195-0.732
		c-1.962,2.253-0.579,2.324-2.274,4.353c3.087-3.691,6.827-5.42,10.409-7.281c3.52-1.924,7.085-3.686,8.955-8.043
		c0.541,0.457-0.158,1.112,0.296,1.583c1.778-1.275,0.938-2.107,3.515-3.521c0.288,0.638,1.121,0.163,1.445,0.729
		c1.384-1.213,2.975-2.479,3.491-3.541c-2.392,2.008-3.923,2.208-5.031,1.529c4.069-2.374,4.848-5.031,9.367-6.21
		c-2.444,1.429-0.987,2.125-3.445,3.549c1.075,0.254,1.613,1.652,3.604-0.025c-0.246-0.488-1.046-0.88-0.354-1.549
		c0.609,1.503,8.443-3.562,11.322-6.312c-0.343-1.511-1.991,0.408-2.491-0.67c0.888-0.246,2.115-1.357,3.374-2.562
		c-0.501,1.642-0.234,1.245,0.933,2.074c1.907-1.292-0.084-1.528,1.365-2.703c0.872,1.07,3.262-1.967,4.375-1.554
		c1.449-2.983,2.803-2.879,3.123-1.903c1.291-2.558,2.308-3.033,2.879-5.156c1.371-0.3,0.278,0.369,1.033,1.012
		c1.952-2.354,1.846-2.021,3.882-3.17c0.512-1.024,0.496-1.933,0.929-3.021c1.391-0.429,2.133-1.962,1.275,0.217
		c5.848-5.311,4.48-9.976,7.609-12.191c-1.733-2.062,1.195-3.782,3.636-5.206c-0.008-1.242-2.25,0.503-1.124-0.913
		c1.866-0.97,2.949-2.187,4.348-4.577c1.274,0.221,0.217,1.566,0.584,2.225c0.474-1.612,2.365-3,2.261-3.595
		c-0.771,0.691-1.487,1.033-2.136,1.033c1.007-1.317,0.75-2.025,2.24-3.582l0.875,0.645c1.965-5.919,8.322-11.57,8.473-14.607
		c1.04-1.99,1.636-0.666,2.545-1.683c-0.404-0.291-0.862-0.163-1.321-0.021c0.459-1.729,6.947-7.41,3.058-4.678
		c1.854-2.741,3.582-2.861,3.895-5.011c-0.938,1.345-1.688,0.903-0.938-0.546c-0.059,1.125,0.709,1.041,1.658-0.658
		c-0.191-0.883,0.449-2.278,0.858-3.544c-0.109,2.107,2.225-2.449,2.453-3.433c-0.346,0.433-0.709,1.183-1.029,1.029
		c0.583-1.275,1.833-4.882,3.183-5.419c0.229,0.604-1.309,2.349-0.774,2.753c1.762-1.737,1.145-2.92,2.174-5.17
		c2.537,0.071,1.642-6.947,4.407-6.405c-1.858,2.225-2.104,4.678-2.509,6.764c-0.457,2.046-0.958,3.778-3.078,4.554
		c1.738,1.07-0.537,2.536-1.587,5.539c1.413-0.142,0.205,1.383,0.542,1.916c1.924-2.67,0.684-1.933,0.813-2.782
		c0.68-0.387,1.42-2.195,2.032-1.313c-0.374,0.746-1.078,1.709-0.763,2.013c1.238-2.666,2.379-3.741,3.475-3.787
		c0.567-1.815,1.424-3.148,2.512-4.96c1.004-1.858,2.271-4.174,3.732-7.86c0.003-1.47-1.429,0.404-0.696-1.887
		c5.436-7.727,6.29-16.507,9.256-22.984c-0.533-1.729-2.399,0.513-1.316-2.715c1.075-1.467,1.6-0.763,2.291,0.05
		c0.846-6.556,4.314-9.826,6.206-16.595c-2.124-3.603,3.137-12.259,1.782-16.999c-0.278,3.266-1.3,7.36-2.924,8.677
		c-0.608-2.874,0.958-10.875,3.091-9.363c-0.346-3.986,3.133-6.647,1.259-8.318c2.606-0.304,3.78-8.247,3.682-12.874
		c0.008,0.683,0.557-0.971,0.766-2.741c0.541-4.619,1.321-9.751,1.857-14.833c0.204-3.974,0.181-7.918-0.152-11.537
		c0.399-0.017,0.819,0.024,1.302,0.204c-0.32-4.36-0.615-8.655-0.915-12.927c0.087,0.073,0.19,0.123,0.366,0.04
		c-0.608-2.122-0.425-2.916-0.725-4.898c-0.109-1.444-0.227-2.878-0.342-4.313c0.725-1.8,1.295-5.055,1.433-6.856
		c0.079,1.386,1.034,0.825,0.866,2.75c-0.523,3.053-0.308,6.871,1.058,9.086c-0.241,1.459-0.603,1.489-1.099,0.717
		c0.908,8.2-0.254,14.291,1.292,21.805c-1.251-1.879-1.264,6.881,0.082,4.952c-1.033,4.744-2.087,10.809-2.665,16.824
		c-0.297,3.007-0.501,6.002-0.566,8.813c-0.038,1.404-0.038,2.767,0,4.058c-0.043,1.274-0.046,2.486,0.004,3.607
		c0.461-3.486,2.52-9.626,1.528-12.763c1.325,1.841,0.708-3.078,0.158-3.569l1.078,0.133
		C578.405,323.243,578.634,307.124,578.805,291.58z M476.793,94.358c1.241-0.591,2.024,1.269,2.487,2.254
		C478.58,97.121,476.959,94.79,476.793,94.358z M177.658,533.422c0.131-1.898,3.103,0.87,3.376,0.371
		C182.531,535.176,179.191,534.394,177.658,533.422z M198.33,545.552c0.9-1.866,2.01,0.612,4.479,1.187
		C202.299,547.418,199.689,545.801,198.33,545.552z M203.511,540.091c0.305-0.941,3.112,0.183,3.751,0.925
		C206.958,541.753,204.64,540.266,203.511,540.091z M248.196,558.426c0.616-0.195,1.524-0.175,2.659,0.008
		c-0.121,0.509-0.231,1.009,0.531,1.175C250.779,560.363,247.276,559.38,248.196,558.426z M269.091,562.45
		c-0.439-1.014,1.345-0.668,1.383-1.383c-5.194-1.259-10.638-0.493-12.275-3.445c4.488,1.267,6.323,0.263,9.824-0.292
		c0.848,0.404,1.225,1.037,2.551,1.208c-1.014,0.796-1.62,0.48-3.278,0.204c0.485,1.4,2.231,2.199,5.153,2.417
		C272.863,562.517,271.344,562.712,269.091,562.45z M551.538,362.159c0.793,0.075-0.417,2.341-0.466,3.332
		c-0.221-0.358-0.434-0.725-0.525-1.216c0.251-0.579,0.5-1.162,0.734-1.746C551.363,362.501,551.446,362.418,551.538,362.159z
		 M545.716,408.876c-1.47,2.45-1.058,2.146-2.349,5.028c-1.051,0.816-2.175-0.362-0.775-2.595
		C543.692,414.054,543.708,408.443,545.716,408.876z M370.754,542.859c-0.191,0.893-3.336,1.472-4.785,2.017
		C366.552,542.923,368.209,543.665,370.754,542.859z M336.938,557.98c-3.675,0.342-5.382-0.192-9.464-0.279
		c1.896-1.903,5.752-1.067,9.592-2.311C337.036,556.255,336.32,556.894,336.938,557.98z M316.91,558.226
		c-0.492,1.233-2.216,0.051-2.641-0.107c-0.309-0.825,1.82-0.533,1.808-1.233C318.355,556.646,314.627,558.464,316.91,558.226z
		 M324.808,557.755c-0.3,0.896-2.008,1.287-2.319,2.187c-1.038-0.933-5.62,0.816-6.087-0.549
		C319.405,560.021,321.367,557.493,324.808,557.755z M319.935,552.586c-2.066,0.496-3.974,1.19-7.436,1.663
		c-1.5-1.854,1.495-2.504,5.249-3.442c3.761-0.861,8.343-1.465,10.134-1.965c2.807,0.521,3.595,1.887-0.13,2.953
		c0.08-0.309,0.579-0.454,0.509-0.813C324.225,551.612,322.004,552.07,319.935,552.586z M313.653,558.522
		c-4.716,1.224-15.78,1.282-13.146-0.617C303.882,559.242,308.196,557.396,313.653,558.522z M331.372,550.112
		c-0.384-0.907,1.137-1.134,2.308-1.487C333.838,549.587,332.576,550.57,331.372,550.112z M336.171,539.149
		c-4.395,0.657-8.831,1.074-12.246,1.544c-1.475,0.601,0.75,1.505,2.07,1.129c-0.446,1.108-2.612,0.317-3.67,0.588
		c-0.175-0.629,0.624-0.875,0.379-1.523c-0.388-0.758-3.016,0.325-4.307,0.303c3.886-2.369,7.951-3.224,12.642-3.794
		c2.349-0.254,4.849-0.521,7.53-0.808c2.658-0.442,5.478-1.101,8.515-1.953c0.082,0.504,0.166,1.007,0.874,0.887
		c-1.565,0.819-3.415,1.541-5.424,2.183c-0.999,0.32-2.04,0.62-3.098,0.904C338.361,538.787,337.262,538.965,336.171,539.149z
		 M191.128,496.18c0.251-0.049,0.56,0,0.791,0.112c0.002,0,0.005,0,0.005,0c-0.025,0.089-0.015,0.172-0.075,0.264
		c-0.809-0.159-1.194-0.267-1.404-0.366C190.676,496.177,190.884,496.226,191.128,496.18z M156.844,481.639
		c-0.186,0.172-0.373,0.338-0.561,0.505c-0.173-0.088-0.346-0.175-0.516-0.262c0.092-0.13,0.183-0.259,0.277-0.392
		c0.092-0.13,0.184-0.259,0.275-0.388h0.002l0,0C156.494,481.281,156.668,481.461,156.844,481.639z M266.038,83.144
		c-0.458,0.452-1.177,0.721-2.322,0.812c-0.163,0.014-0.329,0.004-0.493,0.01c-0.482-0.167-1.254-0.06-1.983,0.025
		C262.753,83.18,264.372,83,266.038,83.144z M563.385,225.991c0.466,1.595,0.1,2.274-0.325,2.891
		c-0.508-1.903-0.65-3.928-1.249-5.823c0.024-0.37,0.07-0.712,0.166-1.001C563.164,226.102,561.568,225.756,563.385,225.991z
		 M564.26,229.362c0.224,1.235,0.417,2.152,0.603,2.931c-0.091-0.023-0.145-0.082-0.241-0.1c-0.257-0.325-0.466-0.665-0.656-1.008
		C563.635,230.1,563.393,229.115,564.26,229.362z M561.936,319.67c0.071-0.946-0.108-1.504-0.408-1.854
		c0.121-1.588,0.333-3.058,0.687-4.179c0.246,0.438,0.472,0.904,0.696,1.38c0.083-0.65-0.158-1.588-0.242-2.425
		c0.051-0.096,0.092-0.233,0.143-0.316c-0.059-0.175-0.089-0.4-0.143-0.587c0.059-0.304,0.184-0.555,0.433-0.708
		c0.097,1.286,0.979,1.253,0.563,3.394C561.219,317,562.811,315.542,561.936,319.67z M337.803,86.808
		c-0.42,0.07-0.646-0.028-0.787-0.198c0.279-0.071,0.559-0.138,0.837-0.206C337.861,86.563,337.836,86.801,337.803,86.808z
		 M511.644,155.696c-1.091-0.079-2.057-0.362-2.133-1.745c0-0.021,0-0.043,0-0.066C510.261,154.436,510.982,155.026,511.644,155.696
		z M561.257,298.814c-0.089-1.083-0.172-2.176-0.264-3.265c0.03-0.092,0.071-0.181,0.102-0.275c0.249-0.82,0.994-1.505,1.678-2.184
		c0.013,1.129,0.021,2.251,0.028,3.353c0.076,2.472,0.251,4.859,0.622,7.137c-0.571,0.059-1.25-0.108-1.142,1.333
		c0.537,0.125,1.346-0.221,1.42,0.691c-0.25,2.021-0.704,3.641-1.325,4.907C561.626,307.228,561.42,303.125,561.257,298.814z
		 M562.585,289.249c0.013,0.186,0.024,0.365,0.033,0.55C562.544,289.613,562.544,289.432,562.585,289.249z M527.18,172.539
		c-0.799-0.86-0.661-2.047,0.376-2.849c0.074-0.057,0.184-0.067,0.282-0.086c1.192,1.46,2.309,3.122,3.349,4.995
		C529.684,174.875,528.822,174.311,527.18,172.539z M525.98,167.555c-1.236-0.354-2.058-1.166-2.486-2.393
		C524.343,165.891,525.172,166.696,525.98,167.555z M561.489,318.433c0.129,0.816,0.079,1.699-0.079,2.616
		C561.41,320.165,561.44,319.295,561.489,318.433z M569.558,255.696c0.184-0.531,0.44-1.052,0.717-1.577
		c0.023,1.16-0.129,2.137-0.584,2.497C569.662,256.331,569.599,256.002,569.558,255.696z M568.721,249
		c0.012-0.23-0.017-0.513,0.029-0.7c0.241,0.279,0.475,0.776,0.687,1.354C569.228,249.498,568.991,249.279,568.721,249z
		 M566.543,241.652c-0.885,1.956,0.382,4.309,1.04,4.042c-0.1,0.875-0.328,1.189-0.625,1.233c-0.299-0.387-0.591-0.774-0.87-1.162
		c-0.062-0.252-0.112-0.5-0.179-0.754c-0.351-0.427-0.725-0.796-1.101-1.146c-0.233-0.381-0.424-0.717-0.508-0.92
		c-0.279-0.721,0.546-1.685,1.459-1.595c0.224,0.021,0.457,0.083,0.682,0.154C566.479,241.554,566.505,241.603,566.543,241.652z
		 M561.485,222.167c-0.029-0.065-0.045-0.131-0.075-0.193c-0.125-0.279-0.125-0.523-0.084-0.755
		C561.377,221.544,561.436,221.864,561.485,222.167z M270.172,84.006c-0.408-0.031-0.779-0.131-1.097-0.31
		C269.438,83.793,269.806,83.896,270.172,84.006z M356.797,543.64c0.524,1.546-1.912,0.349-3.615,1.341
		C353.811,543.889,355.139,543.798,356.797,543.64z M496.563,476.646c0.699,1.195-1.863,1.982-3.363,4.303
		c-0.433-0.487-1.129,0.116-1.541-0.445C493.334,479.065,495.037,477.479,496.563,476.646z M499.881,472.334
		c0.355,0.371,0.717,0.733,1.288,0.176c0.819,0.662-1.879,3.439-2.878,3.811C497.815,475.38,498.441,474.017,499.881,472.334z
		 M552.672,358.848c0.12,0.079,0.27,0.129,0.384,0.221c-0.417,0.983-0.593,1.075-0.801,0.921
		C552.397,359.609,552.537,359.231,552.672,358.848z M560.527,331.761c-0.043-0.541-0.1-1.066-0.183-1.536
		c0.198-0.204,0.42-0.362,0.648-0.487C560.952,330.378,560.77,331.062,560.527,331.761z M561.844,327.375
		c-0.142-0.854-0.251-1.953-0.329-3.153c0.221-0.974,0.47-1.891,1.045-3.156c-0.174,3.007-0.458,4.015-0.349,6.231
		C562.086,327.334,561.969,327.379,561.844,327.375z M570.466,268.204c0.354-1.647,0.45-3.343,0.154-5.392
		c1.986,0.792,1.162,5.598,0.12,7.289C570.656,269.468,570.558,268.834,570.466,268.204z M569.903,257.993
		c0.638,0.773,1.032,2.27,1.333,4.03C569.965,262.799,569.512,259.125,569.903,257.993z M564.775,224.158l-1.391,0.39
		c-0.525-1.138,0.275-3.091-0.895-3.368c-0.26-2.334,0.887,0.552,1.22,0.369c0.184-0.888-0.292-1.423-0.884-2.074
		c0.246-0.207,0.476-0.423,0.671-0.655C564.401,220.262,565.035,221.992,564.775,224.158z M562.018,212.56
		c-0.466-0.056-0.702-1.283-0.991-2.249c0.035-0.002,0.076,0.002,0.109,0c0.341-0.035,0.62-0.296,0.846-0.619
		C562.91,211.614,561.873,211.467,562.018,212.56z M556.154,205.846c0.141-0.094,0.471-0.037,0.637,0.071
		c1.225,0.802,2.054,1.831,2.354,3.354c0.143,0.707,0.742,0.992,1.424,1.042c0.117,0.546,0.217,1.158,0.233,1.912
		c-0.346,0.103-0.259,0.675-0.508,0.892c-0.891-3.118-2.606-2.026-0.524-0.557c0.082,0.43,0.163,0.867,0.242,1.302
		c-1.149-0.029-2.301-0.063-3.442-0.187c-0.323-0.036-0.869-0.91-0.783-1.271c0.239-1.012,1.21-2.043,1.042-2.909
		c-0.178-0.967-1.424-1.712-1.157-2.985C555.729,206.259,555.937,205.988,556.154,205.846z M543.992,183.264
		c-0.422-0.208-0.842-0.398-1.279-0.16c-0.271-0.625-0.541-1.158-0.82-1.639c-0.066-0.44-0.112-0.883-0.146-1.329
		C542.441,181.11,543.263,182.25,543.992,183.264z M497.557,119.646c0.267,0.311,0.542,0.636,0.813,0.951
		c-0.056,0.102-0.089,0.212-0.163,0.305c-1.5-0.3-2.204-2.271-3.104-4.135C495.899,117.734,496.699,118.701,497.557,119.646z
		 M472.815,111.739c0.138,0.085,0.226,0.248,0.301,0.426c-0.297-0.112-0.593-0.237-0.893-0.36
		C472.35,111.646,472.574,111.584,472.815,111.739z M256.273,84.672c0.012,0.286,0.021,0.577,0.029,0.873
		c0.69-0.004,1.101-0.375,1.345-0.898c1.148,0.006,2.318,0.043,3.52,0.073c-0.438,0.925-1.285,1.527-2.11,2.072
		c-1.383,0.915-2.337,0.365-2.82-1.089c-0.488,0.165-1.001,0.283-1.454,0.519c-2.241,1.156-3.057,1.127-4.263-0.418
		c-0.041-0.054-0.07-0.121-0.11-0.177C252.353,84.972,254.29,84.727,256.273,84.672z M239.628,87.291
		c1.98-0.381,3.849-0.539,5.527-0.552c-0.424,0.369-0.985,0.625-1.882,0.604c-0.538-0.015-1.325,0.017-1.585,0.35
		c-1.918,2.447-5.005,0.412-7.123,1.947c-1.485,1.079-2.326,0.531-3.063-0.313C234.22,88.411,237.025,87.763,239.628,87.291z
		 M97.774,430.532c-0.235-0.054-0.473-0.862-0.412-1.279c0.031-0.216,0.151-0.425,0.296-0.624c0.145-0.205,0.316-0.404,0.447-0.608
		l0,0h0.002c0.221,0.416,0.566,0.812,0.633,1.249C98.841,429.944,98.764,430.748,97.774,430.532z M105.605,451.979
		c-0.096,0.371-0.583,0.642-0.892,0.963c-0.181-0.2-0.496-0.388-0.522-0.609c-0.089-0.758-0.094-1.527-0.125-2.294
		c-0.042,0-0.069-0.013-0.113-0.013c-0.006-0.059-0.01-0.112-0.017-0.171c-0.381-0.175-0.772-0.338-1.126-0.558
		c-0.067-0.038,0.026-0.542,0.087-0.551c0.928-0.128,0.983,0.492,1.039,1.108c0.042,0.021,0.082,0.042,0.124,0.063
		c0.001,0.042,0.004,0.084,0.006,0.121C105.32,450.067,105.932,450.688,105.605,451.979z M110.754,456.677L110.754,456.677
		L110.754,456.677c-0.436-0.258-0.871-0.516-1.304-0.774c0.464-0.237,0.937-0.68,1.391-0.662c0.467,0.021,0.917,0.483,1.375,0.749
		C111.728,456.22,111.241,456.448,110.754,456.677z M114.191,460.347c-0.043,0.629-0.087,1.263-1.047,1.107
		c-0.064-0.012-0.154-0.523-0.087-0.562C113.415,460.676,113.809,460.518,114.191,460.347c0.006-0.059,0.011-0.116,0.017-0.179
		c0.043,0.008,0.07-0.013,0.115-0.009c-0.051-1.021-0.167-2.054,0.691-2.865c0.501-0.475,2.174-0.458,2.145,0.021
		c-0.025,0.425-0.156,0.925-0.422,1.241c-0.642,0.758-1.206,1.703-2.414,1.604c0.001,0.042,0.004,0.083,0.006,0.125
		C114.284,460.305,114.239,460.33,114.191,460.347z M120.966,461.93c-1.201,2.736-3.707,4.827-3.984,8.056
		c-0.013,0.158-1.012,0.429-1.456,0.304c-0.42-0.116-1.075-0.783-1.008-1.049c0.814-3.221,2.232-6.182,4.219-8.839
		c0.17-0.233,1.045,0,1.568,0.125c0.008,0.004,0.014,0.017,0.024,0.021c0.146,0.124,0.263,0.258,0.415,0.384
		c0.052,0.062,0.1,0.132,0.155,0.187C120.927,461.392,121.062,461.709,120.966,461.93z M146.505,483.113
		c-0.283,0.63-0.718,0.884-1.351,0.672c0.179-0.567,0.531-1.029,1.345-1.158c1.462-0.238,2.079,0.671,1.929,1.953
		c-0.018,0.154,0.034,0.263,0.029,0.404C147.984,484.501,147.431,483.909,146.505,483.113z M157.148,485.775
		c-0.021,0.059-0.036,0.126-0.056,0.18l-0.125-0.121C157.021,485.813,157.088,485.797,157.148,485.775
		c0.039-0.125,0.077-0.249,0.114-0.375c0.117,0.071,0.24,0.143,0.357,0.213C157.463,485.667,157.302,485.722,157.148,485.775z
		 M214.804,530.718c-5.271-2.428-10.458-4.839-16.722-5.993c-2.057-0.953-4.04-2.241-6.241-3.645
		c-0.231-0.163-0.479-0.321-0.714-0.483c0.977,0.229,1.947,0.446,2.891,0.63c2.355,0.508,4.594,1.012,6.877,1.698
		c2.312,0.613,4.684,1.371,7.265,2.513c4.307-1.928,10.404,5.73,14.503,5.14c-1.625-2.607,5.281-0.487,9.261-0.018
		c-0.635,1.142-0.183,2.646,0.083,4.744C225.672,534.729,220.191,532.718,214.804,530.718z M294.601,544.113
		c1.272-0.794,2.06,0.834,4.356,0.484c-0.043-0.35-0.778-0.233-1.257-0.292c0.106-0.525,1.831-0.229,1.799-0.825
		c-0.706-0.783-3.871,0.08-5.547-0.057c2.513-1.813,8.767-1.663,10.846-2.8c1,0.712,0.6,1.936,0.195,2.161
		c0.662,1.178,1.375-0.042,2.528,0.567c1.666-0.575-2.008-0.617-1.407-1.721c4.698-0.329,5.807,0.063,7.843-1.249
		c1.995,0.29-0.021,0.62,3.678-0.172c0.658,2.425-3.814,1.179-5.285,2.092c2.261,1.545,7.734-2.445,8.084,0.038
		c-1.92,0.19-3.932,0.62-6.022,1.058c-2.099,0.308-4.286,0.628-6.481,0.953C303.507,544.927,298.917,545.206,294.601,544.113z
		 M295.997,558.879c-0.593,1.121,1.489,0.567,2.656,0.58c-2.133,0.584-5.626,0.754-9.526,0.899
		c-3.903-0.112-8.216-0.333-12.052-0.092C281.647,557.593,289.092,560.143,295.997,558.879z M275.079,561.275
		c3.711,0.583,4.62,0.354,8.566,0.683c-3.706-1.833,8.213-0.883,9.215-0.025c-3.093,1.017-6.797,0.796-10.254,0.6
		c-3.461-0.174-6.675-0.32-8.897,0.493C273.18,561.846,274.785,561.95,275.079,561.275z M273.011,564.441
		c0.562-1.246,2.333-0.317,3.33,0.141C276.149,565.42,273.402,564.665,273.011,564.441z M318.019,566.46l-0.15-1.132
		c-0.309,0.074-0.587,0.141-0.896,0.217c-1.453,0.241-2.962,0.445-4.511,0.646c-3.107,0.395-6.381,0.725-9.738,0.958
		c-6.717,0.395-13.763,0.74-20.38-0.533c-0.727,0.066-0.455,0.704-1.342,0.684c-1.563-0.181-2.773-0.547-4.023-0.885
		c0.169-1.116,3.336-0.475,5.365-0.521c0.052-0.512,0.099-1.02-0.673-1.106c6.492-0.155,18.196-0.117,27.76-2.718
		c2.187,0.247,4.257,0.567,5.498,1.429c1.907-0.44-0.533-1.128-0.217-1.79c1.642-0.354,3.211,1.078,3.99-0.096
		c1.962,0.024,0.821,0.421,0.862,1.334c3.266-1.042,5.627-1.858,7.81-1.938c0.467-1.304-2.141-0.233-3.415-0.195
		c1.865-1.566,6.548-1.817,8.539-1.362c0.758,1.273-2.649,2.845,1.141,2.377c-2.699,1.733-10.696,0.488-11.87,2.245
		c5.181,0.117,13.895-2.594,16.952-0.898C331.905,565.937,325.549,564.82,318.019,566.46z M348.491,557.788
		c-0.075-0.648-0.975-0.532-0.999-1.236c2.482-1.004,2.207,0.55,4.693-0.467C351.698,556.835,349.549,557.181,348.491,557.788z
		 M366.019,551.241c-7.894,1.236-14.695,3.295-22.726,4.885c0.25,0.625,2.225-0.333,2.736,0.056
		c0.175,1.128-3.777,1.673-3.953,0.549c-1.674,1.032-1.749,1.35-0.749,2.695c-2.974-0.754-3.595-1.687-2.545-2.524
		c1.046-0.87,3.798-1.47,7.543-2.286c-0.675-0.384-2.174,0.016-3.357,0.107c-0.574-1.033,2.85-1.003,2.924-1.861
		c0.884-0.112,0.75,0.745,0.983,1.237c6.105-1.957,6.519-2.245,13.171-4.22c1.257,1.088,3.22-0.875,4.881,0.158
		c1.634-0.786-2.179-0.234-0.449-1.374c4.548-0.92,4.423,0.079,8.98-2.176c-0.246-0.999-3.898,1.889-3.449,0.104
		c3.032-0.491,5.173-1.619,7.251-3.049c0.496,0.713,0.396,1.333,0.029,1.917c1.671-0.505,1.85-1.221,1.334-2.036
		c2.973-1.53,4.023-0.801,5.456-0.514C381.771,546.576,369.717,548.425,366.019,551.241z M425.29,535.283
		c-0.083-1.887,2.615-2.031,4.09-3.765C429.931,532.647,426.519,534.043,425.29,535.283z M444.117,531.284
		c-1.108,2.659-1-0.503-2.774,0.893c-0.096-0.517,1.309-1.175,2.157-1.782c0.242,0.453,0.483,0.907,1.208,0.516
		C444.829,531.317,444.225,531.452,444.117,531.284z M441.968,525.8l2.315-1.471l0.634,0.884
		C443.718,525.795,442.343,526.69,441.968,525.8z M444.649,523.667c-0.474-0.787,1.417-1.933,2.862-3.015l0.646,0.869
		C446.832,522.563,445.542,523.533,444.649,523.667z M443.676,521.931c-3.574,2.469-7.231,4.772-9.081,6.364
		c0.233-1.479,3.287-3.816,6.974-6.311c3.641-2.558,7.676-5.644,10.379-7.83C450.443,516.382,447.091,519.231,443.676,521.931z
		 M469.042,516.523c-1.259-0.796-1.425-0.775-1.1-2.357C469.258,514.083,471.324,514.69,469.042,516.523z M471.095,513.536
		c-0.595,0.01-1.508,0.709-1.815,0.046c0.641-0.216,1.279-0.438,1.104-0.861c0.625-0.442,0.829,0.216,1.524-0.395
		c-0.092,0.465-0.154,0.928,0.191,1.286C471.429,514.07,470.308,514.261,471.095,513.536z M480.879,508.571
		c-0.175-0.508,1.104-1.419,1.841-2.187c-0.382-0.221-1.157,0.658-1.815,1.18c-0.958-0.033,0.717-2.304-0.999-1.045
		c0.12-0.875,2.898-1.088,3.849-1.093C481.995,507.219,483.17,507.327,480.879,508.571z M493.234,487.388l0.807,0.729l-2.34,2.566
		C490.726,490.129,492.676,488.508,493.234,487.388z M497.058,491.777c0.44-1.653-0.691-0.387-1.954,1.075
		c-0.504-1.607,3.062-3.044,4.535-4.46C500.173,488.99,497.74,490.719,497.058,491.777z M499.153,482.431
		c-0.48,3.083-1.289,5.873-5.919,8.713c0.448-2.016,4.722-4.76,3.244-7.351c4.307-3.924,6.943-7.814,9.284-9.397
		C505.7,477.237,501.855,481.364,499.153,482.431z M511.474,468.272c-2.38,2.679-3.694,3.346-4.686,6.049l-1.429-1.116
		c2.827-2.6,4.985-7.173,8.255-10.238C513.652,465.02,510.869,466.37,511.474,468.272z M539.858,423.768
		c-1.215-0.034-0.433-1.541-1.647-1.574c1.048-0.658,1.99-4.295,3.109-3.124c-0.75-1.438,1.854-4.082,2.972-6.277
		C542.116,416.887,541.867,420.918,539.858,423.768z M540.334,435.834c-0.533-0.324-1.096,0.017-1.67,0.704
		c-0.649-0.458,0.208-1.891,1.141-3.387c0.038,1.408,0.893-0.124,0.926,1.288c0.819-1.088,1.706-3.928,2.423-2.746
		C542.251,432.269,541.292,434.201,540.334,435.834z M544.133,428.212c-0.117-2.191,0.925-2.616,2.166-4.479
		C546.423,425.908,545.378,426.358,544.133,428.212z M546.632,402.546c-0.232-0.712-0.062-1.879,0.574-3.458
		C548.24,399.317,547.598,401.871,546.632,402.546z M546.041,392.833c-0.043-1.816,0.921-2.45,1.498-5.232
		C548.573,387.992,546.84,392.066,546.041,392.833z M549.646,378.333c1.001,0.92-0.974,2.541-0.864,4.687
		C547.29,383.119,549.397,379.865,549.646,378.333z M549.481,389.691c-0.384-2.549,0.132-3.757,0.783-7.627
		c0.216,1.104-0.399,4.687,1.157,1.071C552.596,384.489,550.135,387.292,549.481,389.691z M554.654,360.114
		c-1.4,6.631-0.774,9.139-0.899,12.35c-0.292,1.542-1.192,0.45-1.566,1.683c1.904-0.624,0.596,4.357-0.317,7.693
		c-1.142-0.591-1.77-0.578-1.849-1.278c0.638-0.559,1.149-2.911,0.979-3.944c-1.313,1.628-0.605-2.258-1.438-2.504
		c0.588-1.282,0.916-1.224,1.233-0.358c0.466-5.035,2.916-10.821,3.285-15.84c0.389,0.188,0.514,1.341,1.055,0.233
		c-1.5,0.745,0.328-2.27-0.584-2.195c-0.486,0.733-0.758,0.491-0.921-0.092c0.506-1.532,1.021-3.058,1.441-4.647
		c1.33-0.45-0.641,2.878,0.309,2.856c0.538-2.94,3.129-7.418,1.85-8.543c-0.787,2.907-0.712,4.153-2.095,5.498
		c0.021-0.088,0.054-0.166,0.074-0.249c0.584-2.566,1.075-5.203,1.441-7.943c0.559,0.004,1.034-0.267,1.475-0.638
		c-0.008,0.024-0.016,0.041-0.025,0.066c1.024,1.466,0.793,3.341,0.384,5.266c-0.476,1.911-1.249,3.853-1.017,5.576
		c-0.878,1.546-1.374,1.363-1.887,1.696c0.92,1.332-0.221,7.518-0.687,8.838C553.709,363.7,555.387,360.564,554.654,360.114z
		 M554.592,393.641c1.138-2.271,0.366-3.44,1.649-4.611C558.003,388.729,555.778,394.928,554.592,393.641z M556.366,387.592
		c1.495-0.999,2.728-3.811,4.386-3.777C559.47,386.289,558.161,388.721,556.366,387.592z M570.953,271.867
		c0.004-0.017,0.004-0.021,0.013-0.038c0,0.05,0,0.09,0,0.14C570.961,271.936,570.957,271.9,570.953,271.867z M572.581,268.866
		c0.31-1.06,0.333,2.928,0.725,5.525C571.716,273.689,572.069,270.534,572.581,268.866z"/>
	<path fill-rule="evenodd" clip-rule="evenodd" fill="#909DAC" d="M177.072,51.975c-1.014,1.594-7.645,3.653-8.026,4.364
		C170.498,56.13,179.224,52.29,177.072,51.975z"/>
	<path fill-rule="evenodd" clip-rule="evenodd" fill="#909DAC" d="M320.934,2.363c-0.441-0.836-3.981-0.369-4.223-1.135
		c4.527-0.979,7.438,2.123,12.008,2.55c0.154-0.408-0.013-1.04,0.824-0.981c0.662,0.579,1.054,1.252,1.971,1.739
		c4.856-0.212,13.887,2.662,17.939,1.399c-1.041-0.818-5.189-1.164-2.578-1.993c-3.523-0.714-0.592,1.002-2.382,1.085
		c-0.101-0.304-0.525-0.508-1.366-0.581c1.282-1.454-4.649-1-6.981-2.16c-1.816,0.22,1.149,1.268-0.9,1.329
		c-1.449-1.426-4.39-2.087-4.273-0.616c0.45-0.49-5.714-0.625-3.456-1.579c-7.665-0.745-6.86-1.507-12.896-1.393
		c0.559,1.316,0.042,0.894,0.596,2.208C318.077,1.651,319.056,2.809,320.934,2.363z"/>
	<path fill-rule="evenodd" clip-rule="evenodd" fill="#909DAC" d="M402.605,57.446c1.742,0.46,4.129,1.833,5.532,1.829
		C406.738,58.39,403.51,56.951,402.605,57.446z"/>
	<path fill-rule="evenodd" clip-rule="evenodd" fill="#909DAC" d="M429.097,58.802c-0.67,1.12-3.39-1.137-4.731-1.11
		C425.09,59.054,430.293,60.489,429.097,58.802z"/>
	<path fill-rule="evenodd" clip-rule="evenodd" fill="#909DAC" d="M447.482,47.929c0.32-0.506,1.799,0.866,2.216,0.51
		c-1.066-0.475-1.357-2.414,0.142-1.612c0.775,1.144,1.687,0.371,3.558,0.792c-3.482-1.139-8.543-4.538-10.093-3.909
		C445.954,44.203,449.115,47.221,447.482,47.929z"/>
	<path fill-rule="evenodd" clip-rule="evenodd" fill="#909DAC" d="M448.998,83.804c-0.903,0.74,0.426,1.752,1.95,2.798
		c-0.366-1.725,3.24,1.782,1.683-0.101c-1.324-0.931-2.032-0.653-1.866-1.834c0.288,0.212,0.771,0.204,0.217-0.29
		c-0.5,0.158-1.041,0.25-1.684,0.104C449.402,84.281,449.478,84.08,448.998,83.804z"/>
	<path fill-rule="evenodd" clip-rule="evenodd" fill="#909DAC" d="M453.743,88.236c2.974,3.498,6.552,9.23,10.313,9.749
		c-0.33-0.398-0.946-0.854-0.729-1.133c1.524,1.208,2.449,0.674,4.315,2.886c0.774-0.585-0.388-1.603-1.217-2.542
		c-2.407-1.089-11.021-6.798-10.255-8.941C455.363,88.25,454.343,87.767,453.743,88.236z"/>
	<path fill-rule="evenodd" clip-rule="evenodd" fill="#909DAC" d="M478.759,76.23c0.945,2.276,8.255,6.22,8.219,8.826
		c1.229,1.119,1.958,0.937,3.366,2.581c-0.63,0.15-1.38-0.032-2.008,0.117c1.115,0.749,2.27,1.593,3.381,2.572
		c1.075,1.021,2.15,2.133,3.233,3.308c2.156,2.347,4.331,4.936,6.514,7.52c4.381,5.171,8.876,10.232,13.205,13.854
		c0.44,4.423,6.43,5.638,5.851,8.855c0.579-1.074,0.251-0.824,1.426-1.11c-3.579-2.794-6.92-8.503-6.552-10.698
		c-0.127-0.083-0.109-0.239,0.183-0.589c-0.116,0.144-0.146,0.369-0.183,0.589c0.415,0.285,2.586-0.333,2.645,1.993
		c1.228,0.252-0.079-2.33,1.111-0.925c0.392,1.39,0.65,2.719,0.774,3.985c1.108,1.245,2.125,2.066,3.162,2.951
		c-0.267,0.352-0.879,0.54-0.429,1.239c1.271-1.793,2.624,2.62,3.282,3.765c0.259-1.797-2.329-4.985-1.866-6.693
		c-1.35,0.236-0.95-0.956-2.461-2.634c0.262-0.356,0.869-0.539,0.407-1.247c-0.637-0.201-1.379-3.099-3.354-3.766
		c0.763,1.316,0.5,1.571-0.392,1.267c-1.698-3.18-5.098-5.724-6.506-9.539c-1.741,1.089-2.77-1.51-4.398-3.752
		c-0.471,0.281-0.796,1.104-1.533,0.464c-0.915-1.144-0.267-1.713-0.399-2.574c0.766,0.963,3.356,2.657,2.232,0.833
		c-0.808,0.64-3.114-3.851-3.928-3.192c1.113,1.101,1.337,1.877,0.684,2.336c-0.521-1.927-1.579-0.587-3.175-2.891
		c-0.853,0.468-1.653,1.13-2.757,0.754c0.125-2.566-3.195-2.364-4.865-4.11c-0.72-2.028-1.373-3.788-0.832-5.335
		c-1.817-1.329-2.125-2-2.875-2.135c1.017,1.062,0.404,1.67,0.604,2.506c-3.774-2.378-4.665-3.67-7.889-7.13
		C481.304,78.372,479.959,77.852,478.759,76.23z M506.92,103.022c0.775,0.398,1.633,1.079,2.649,2.382
		c-0.392,1.839-2.583-2.974-2.965-1.12C506.088,103.629,506.679,103.394,506.92,103.022z"/>
	<path fill-rule="evenodd" clip-rule="evenodd" fill="#909DAC" d="M475.973,106.896c0.829,1.256,0.574,2.189,0.516,3.179
		c1.013,1.462,1.388,0.425,2.268,1.353c-0.46,0.423-0.317,1.025,0.115,1.71c1.255-2.142-2.062-3.732-1.508-5.823
		C477.022,107.65,476.356,106.726,475.973,106.896z"/>
	<path fill-rule="evenodd" clip-rule="evenodd" fill="#909DAC" d="M551.797,181.175c-0.259-3.657,2.365,1.075,2.624-1.211
		c-1.2,0.385-2.299-2.1-3.478-2.269C552.563,179.876,550.627,179.334,551.797,181.175z"/>
	<path fill-rule="evenodd" clip-rule="evenodd" fill="#909DAC" d="M552.771,193.683c-0.524-0.021-0.982-0.666-1.582-0.104
		c0.804,1.858,0.211,2.486,0.211,3.641c0.412-0.3,1.904,3.018,1.495,0.891C550.89,195.785,553.146,195.253,552.771,193.683z"/>
	<path fill-rule="evenodd" clip-rule="evenodd" fill="#909DAC" d="M533.02,443.92c1.259-0.854,3.149-0.643,2.662-0.926
		C536.194,441.107,533.8,442.273,533.02,443.92z"/>
	<path fill-rule="evenodd" clip-rule="evenodd" fill="#909DAC" d="M509.92,476.779c-1.767,2.174-3.974,3.156-3.899,4.998
		c1.237-0.775,3.732-3.058,3.274-0.983c0.408-1.778,5.506-5.103,4.119-4.886C512.068,477.003,508.448,479.74,509.92,476.779z"/>
	<path fill-rule="evenodd" clip-rule="evenodd" fill="#909DAC" d="M534.652,505.061c-0.095,0.838-0.087,0.779-0.425,3.762
		c2.071-2.854,3.94-5.636,2.763-6.98C536.386,502.836,533.953,504.674,534.652,505.061z"/>
	<path fill-rule="evenodd" clip-rule="evenodd" fill="#909DAC" d="M445.425,539.44c-0.975,0.771-1.866,0.525-1.824,1.138
		c2.482-0.726-2.054,1.874-1.85,2.429c1.616-0.501,5.507-3.146,4.689-3.354C443.913,541.303,444.867,540.416,445.425,539.44z"/>
	<path fill-rule="evenodd" clip-rule="evenodd" fill="#909DAC" d="M363.437,572.93c1.024,0.1,2.669-0.363,3.086,0.291
		c-3.262,1.037-8.685,0.313-6.927,1.854c0.971-1.12,4.319-0.695,5.165-0.258c0.578-0.983,6.931-3.861,4.994-3.233
		C366.768,573.126,364.419,571.783,363.437,572.93z"/>
	<path fill-rule="evenodd" clip-rule="evenodd" fill="#909DAC" d="M346.783,573.871c0.05,1.708-2.599,3.648,0.296,4.365
		c-0.37-0.642,0.787-0.88,1.146-1.371c-2.24-0.383-1.958-2.52,2.153-3.149C350.79,572.363,348.112,573.713,346.783,573.871z"/>
	<path fill-rule="evenodd" clip-rule="evenodd" fill="#909DAC" d="M334.537,577.436c-1.42,0.563,1.6,1.205,1.188,2.371l-2.828,0.458
		l-0.329-1.779c-2.137,1.482-6.327,1.736-4.562,2.916c-1.148-0.404-2.932,0.18-3.481,0.896c5.465-0.324,6.831-1.887,11.338-1.783
		c-0.008-0.445,0.05-0.869,1.274-0.94C334.996,578.936,336.999,577.336,334.537,577.436z"/>
	<path fill-rule="evenodd" clip-rule="evenodd" fill="#909DAC" d="M304.273,597.888c1.416,0.466,4.998-0.317,3.906,1.574
		C313.569,598.958,306.018,596.571,304.273,597.888z"/>
	<path fill-rule="evenodd" clip-rule="evenodd" fill="#909DAC" d="M274.714,578.623c0.823,0.213,1.585,0.457,2.1,0.813
		C284.608,579.123,276.266,578.557,274.714,578.623z"/>
	<path fill-rule="evenodd" clip-rule="evenodd" fill="#909DAC" d="M270.453,580.247c0.6,1.096,3.813,1.521,5.627,1.329
		c-0.527-0.803-3.066-1.445-1.379-2.229c-3.763-0.415-6.006,0.013-8.459,0.333c2.054,1.334-2.086,1.237-0.791,1.767
		c0.929-0.45,3.357-0.325,4.249,0.208C270.632,580.798,269.383,580.51,270.453,580.247z"/>
	<path fill-rule="evenodd" clip-rule="evenodd" fill="#909DAC" d="M260.788,576.845c0.054,0.908-1.154,1.096-2.198,1.246
		c-0.125-0.772-3.066-0.501-3.43-1.175c-0.777,0.229-0.339,1.295-2.195,0.791c-12.113-1.892-21.157-3.016-29.567-5.479
		c-4.223-1.116-8.358-2.211-12.735-3.368c-2.185-0.593-4.43-1.205-6.779-1.846c-2.297-0.796-4.698-1.628-7.239-2.516
		c-0.439,2.396-2.175-1.104-3.558-0.482c0.742,2.281,2.331,2.436,5.405,4.185c0.923-0.912-1.531-1.319-1.595-2.082
		c0.917,0.333,1.516,0.341,2.111,0.346c-1.376,1.18,3.141,2.191,0.736,2.55c4.981,1.373,10.621,2.069,16.702,3.397
		c3.056,0.617,6.25,1.304,9.601,2.092c1.673,0.404,3.389,0.812,5.152,1.237c1.774,0.346,3.595,0.703,5.469,1.07
		c0.052-0.625,0.675-0.833,1.558-0.863c1.558,1.154,1.81,0.625,4.857,1.096c-0.946,0.933-0.594,1.271,1.17,1.995
		c0.168-0.398,0.01-1.032,0.837-0.974c3.638,0.532,8.447,0.72,12.675,0.57c3.776-0.158,7.092-0.891,8.77-1.569
		C265.236,577.361,262.401,576.754,260.788,576.845z"/>
	<path fill-rule="evenodd" clip-rule="evenodd" fill="#909DAC" d="M171.518,517.719c2.447,0.92,5.134,2.761,2.347,2.324
		c1.33,1.013,3.06,2.183,4.12,1.55c1.762,1.666,1.96,4.365,4.676,4.98c-0.193,0.605-0.564,0.984-1.133,1.071
		c1.987,0.633,3.048-0.004,4.711,0.192c1.047,0.641-0.069,1.508,1.895,2.057c0.9-0.641,4.117,0.15,7.148,1.329
		c-0.192,0.184-0.354,0.366-0.369,0.558c-0.038,0.463,0.277,0.954,0.441,1.434c0.28-0.295,0.764-0.579,0.787-0.896
		c0.019-0.264-0.06-0.538-0.16-0.815c3.359,1.391,6.231,3.173,5.023,3.869c1.753,0.44,3.499,1.129,5.215,1.828
		c-0.013,0-0.025,0-0.037,0c-0.229,0.025-0.438,0.328-0.64,0.521c-0.367,0.35-0.231,0.857,0.5,1.046
		c1.559,0.392,3.366-0.092,4.594,1.396c1.452-1.042,2.688-0.572,4.169,0.195c0.844,0.44,1.496-0.005,1.829-0.904
		c0.112-0.033,0.233-0.028,0.346-0.066c-0.092-0.051-0.165-0.1-0.252-0.15c0.08-0.279,0.103-0.617,0.115-0.966
		c1.07,0.199,2.245,0.499,2.419-0.167c-0.778-0.163-1.603-0.337-2.421-0.517c-0.121-0.763-0.454-1.841-0.904-1.536
		c-0.617,0.415-1.248,0.674-1.883,0.862c-0.581-0.147-1.154-0.275-1.737-0.447c-2.353-0.786-4.758-1.64-7.116-2.502
		c-4.701-1.749-9.232-3.441-12.75-4.749c0.436-0.295,0.92-0.537,1.56-0.587c1.771,0.549,2.42,2.395,3.535,1.278
		c-1.841-0.62-2.667-1.429-3.872-2.171c-0.955,0.829-2.633,0.422-4.313-0.216c-1.647-0.72-3.32-1.607-4.421-1.482
		c0.912-0.097,1.237-0.896,0.687-1.666c-2.447-0.828-5.589-2.633-6.894-4.424c0.344-0.403,1.173-0.116,1.563-0.462
		C176.702,517.781,175.175,518.44,171.518,517.719z"/>
	<path fill-rule="evenodd" clip-rule="evenodd" fill="#909DAC" d="M187.498,546.256c3.428,0.382,6.375,0.715,9.601,3.073
		c0.181-0.462-0.05-0.854-0.294-1.25c1.077,0.396,1.704,0.308,2.11-0.025c-3.972-0.896-5.805-1.895-9.664-2.694
		C193.367,546.784,188.487,546.276,187.498,546.256z"/>
	<path fill-rule="evenodd" clip-rule="evenodd" fill="#909DAC" d="M181.298,541.873c-1.066-0.458-1.862-0.945-2.292-1.444
		c-1.07,0.679,2.058,3.557,1.279,2.174C178.595,541.606,181.425,542.502,181.298,541.873z"/>
	<path fill-rule="evenodd" clip-rule="evenodd" fill="#909DAC" d="M167.138,544.06c-1.649,2.021,5.624,3.615,5.872,5.54l0.274-0.666
		c0.394,0.154,0.769,0.295,0.767-0.046c-1.43-0.888-3.557-1.712-6.117-3.249C168.106,545.094,168.534,544.535,167.138,544.06z"/>
	<path fill-rule="evenodd" clip-rule="evenodd" fill="#909DAC" d="M145.985,560.351c0.666,0.074,2.832-0.492,1.463-1.291
		c-1.734,0.516-2.576-0.778-3.948-0.404c1.108,0.646,1.564,1.129,1.656,1.69c-2.351-0.595-2.227-1.132-4.563-2.537
		c-0.464,0.521,0.358,1.129-0.019,1.662c-2.001-1.766-4.042-1.507-5.696-2.069c1.943,1.029,1.614,1.895,3.564,2.919
		c2.463-0.257,4.056,1.292,8.603,2.962c0.11-0.737,1.222-0.199,1.82-0.32C147.16,562.092,146.802,561.221,145.985,560.351z"/>
	<path fill-rule="evenodd" clip-rule="evenodd" fill="#909DAC" d="M163.7,492.943c1.47,0.333,2.011,2.141,2.493,1.487
		c-2.172-1.454-0.933-1.8-1.079-2.748C163.954,491.982,163.723,491.637,163.7,492.943z"/>
	<path fill-rule="evenodd" clip-rule="evenodd" fill="#909DAC" d="M462.628,57.474c2.482,2.024,3.632,1.458,5.468,2.239
		c1.454,1.466,1.529,2.687,2.396,4.042c1.392,0.487,2.899,1.745,4.611,3.194c1.62,1.559,3.436,3.318,5.578,4.703
		c-2.741-2.155-2.57-3.571-3.204-5.206c-2.521-1.002-3.457-2.626-5.765-3.125c0.437-0.521,0.012-0.949-0.938-1.16
		c0.616-0.654,1.149-1.326-0.083-2.315c-1.87-0.129-4.615-1.973-6.49-2.114c-0.3-0.821-0.324-1.594-0.92-2.466
		c-0.254,0.425-0.725,0.454-1.195,0.473C463.152,56.457,463.239,57.021,462.628,57.474z"/>
	<path fill-rule="evenodd" clip-rule="evenodd" fill="#909DAC" d="M201.272,572.32c-1.414-1.015-3.057-2.02-4.833-2.924
		c-3.553-1.798-7.633-3.178-11.561-3.318c-0.251,2.99-3.174,3.206-7.04,2.424c0.835-1.612-3.482-2.665-3.888-4.157
		c-0.327,1.562-2.724-0.142-2.637,0.788c-0.185-0.658-0.714-1.297-1.59-1.917c-0.478,1.745-4.538-0.841-7.173-1.733
		c-0.475,1.268,0.346,1.296-0.858,1.992c2.664,2.482,9.31,5.794,11.436,7.127c6.913,0.508,14.331,8.588,23.118,10.583
		c5.866,1.3,9.741-1.283,8.549-6.132C203.925,574.179,202.695,573.299,201.272,572.32z"/>
</g>
</svg>
