<?xml version="1.0" encoding="utf-8"?>
<!-- Generator: Adobe Illustrator 16.0.0, SVG Export Plug-In . SVG Version: 6.00 Build 0)  -->
<!DOCTYPE svg PUBLIC "-//W3C//DTD SVG 1.1//EN" "http://www.w3.org/Graphics/SVG/1.1/DTD/svg11.dtd">
<svg version="1.1" id="Layer_1" xmlns="http://www.w3.org/2000/svg" xmlns:xlink="http://www.w3.org/1999/xlink" x="0px" y="0px"
	 width="572.603px" height="243.835px" viewBox="0 0 572.603 243.835" enable-background="new 0 0 572.603 243.835"
	 xml:space="preserve">
<g>
	<g>
		<path fill="#FFF" d="M87.063,57.234c1.215-1.737,1.128-2.084,0.781-2.431c-0.26-0.26-0.434-0.694-0.174-1.823
			c1.476-4.775,4.254-8.422,8.335-11.113c1.65-1.042,3.039,0,3.82,1.389c1.216,1.823-4.515,10.505-6.599,13.631
			c-0.26,0.434-0.521,0.694-0.607,0.955c-3.386,5.036-6.772,10.072-10.158,15.021c-9.03,13.11-17.886,26.481-26.568,39.938
			c-0.434,0.607-0.781,1.042-1.042,1.476c-1.042,1.476-0.955,1.649,1.129,0.607c0.26-0.087,0.521-0.26,0.781-0.347
			c10.158-4.428,21.098-9.464,32.819-15.194c11.721-5.73,22.921-11.981,33.774-18.667c10.853-6.685,20.143-13.805,27.783-21.185
			c16.931-17.017,25.96-44.106-7.727-45.582c-10.853-0.173-24.397,2.084-40.807,6.859c-16.409,4.775-32.124,10.939-47.318,18.493
			c-15.194,7.553-26.307,15.367-33.34,23.616c-4.167,4.862-5.209,9.724,0.782,13.458c1.389,0.781,1.997,0.086,2.344-0.695
			c0.521-0.868,0.868-1.476,2.344-0.434c3.647,3.125,2.605,8.856-1.91,7.64c-12.416-4.428-15.107-12.589-6.772-23.008
			c7.38-8.595,18.841-16.757,34.295-24.571c15.542-7.814,31.604-14.152,48.36-19.014c16.757-4.949,30.822-7.293,42.196-7.033
			c38.375,1.476,30.301,33.253,10.592,53.136c-8.162,7.987-17.886,15.541-29.259,22.661c-11.374,7.119-23.182,13.631-35.424,19.448
			c-12.242,5.817-23.876,10.853-34.815,15.107c-3.994,1.563-4.515,1.997-6.338,5.209c-0.26,0.347-0.434,0.694-0.694,1.128
			c-1.129,1.91-2.344,3.82-3.56,5.817c-4.428,6.859-8.421,13.892-12.155,21.098c-1.997,3.387-4.254,2.345-2.778-1.215
			c4.428-8.77,9.203-17.365,14.239-25.786c1.302-2.171,1.476-2.518-0.521-1.737c-11.634,4.254-23.442,7.901-35.51,10.766
			c-3.125,0.521-3.646-1.91-0.608-2.604c12.242-3.039,24.571-7.554,36.292-12.155c0.694-0.26,1.302-0.521,1.823-0.695
			c2.952-1.128,2.865-1.042,4.862-4.167c0.087-0.261,0.261-0.608,0.521-0.869C61.884,94.915,74.126,75.9,87.063,57.234z"/>
		<path fill="#FFF" d="M185.527,100.905c-2.17,1.303-5.035,2.605-8.508,3.907c-3.386,1.215-6.512,1.563-9.203,1.129
			c-2.691-0.521-4.167-2.692-4.254-6.599v-0.434c0.087-1.65,0-1.563-1.649-0.521c-8.943,5.817-15.541,9.463-19.795,10.939
			c-4.167,1.476-6.599,1.476-7.38,0.174c-0.955-1.823,0.26-4.688,3.473-8.596c3.212-3.907,7.38-7.64,12.502-11.2
			c5.123-3.56,10.071-5.644,14.76-6.338c4.688-0.781,7.988,1.129,9.898,5.557c0.347,1.129-0.521,2.171-1.65,2.518
			c-1.128,0.347-2.865-0.695-3.473-1.823c0-0.261,0.174-0.434,0.26-0.695c0.087-0.26,0.261-0.434,0.174-0.694
			c-1.476-1.997-3.907-2.257-7.467-0.868s-7.293,3.56-11.2,6.512c-3.907,2.952-7.293,5.73-9.984,8.421
			c-2.691,2.605-3.994,4.167-3.82,4.775c0.261,0.608,2.518-0.347,6.859-2.865c4.341-2.518,11.461-7.119,21.358-13.978
			c1.042-0.608,2.257-0.435,2.952,0.607c0.434,0.695,0.434,1.389,0.087,2.084c-2.171,4.775-2.431,7.64-0.782,8.769
			c1.737,1.128,4.167,1.215,7.38,0.26s5.991-2.083,8.335-3.386C187.524,96.912,188.306,98.909,185.527,100.905z"/>
		<path fill="#FFF" d="M182.146,52.024c-0.261,2.691-12.329-1.823-1.042-4.602c10.939-1.823,21.705-3.473,32.211-4.775
			c6.077-0.694,7.119-0.868,9.029-4.515c1.042-1.823,2.084-3.56,3.213-5.383c0.26-0.434,0.434-0.782,0.694-1.216
			c8.942-15.02,15.021-23.963,18.232-26.828c4.949-4.602,7.12-3.82,6.425,2.257c-1.129,7.901-5.209,17.799-12.155,29.52
			c0,0.086,0,0.173-0.087,0.26c-2.083,3.212-1.996,3.56,0.521,3.212h0.607c0.608-0.087,1.303-0.087,1.91-0.087
			c14.413-0.955,29.26-1.302,44.453-1.215c2.865,0,2.865,2.518-0.26,2.344c-16.323-0.261-32.125,0.434-47.492,2.257
			c-0.521,0.087-0.955,0.087-1.39,0.174c-1.736,0-2.604,0.26-3.733,2.083c-7.206,11.113-14.847,21.532-22.747,31.343
			c-7.901,9.811-14.413,17.104-19.709,21.879c-0.607,0.608-0.868,0.781-1.129,0.868c-0.347,0.174-0.607,0.434-1.476,1.91
			c-12.85,20.49-25.786,40.894-38.81,61.297c2.083,0,1.736,1.996,0.087,3.299c-5.123,3.82-7.293,1.91-5.123-3.212
			c3.039-4.775,5.991-9.464,9.029-14.152c21.011-32.645,41.675-65.638,61.992-98.978c0.26-0.434,0.434-0.868,0.694-1.215
			c1.389-1.997,1.649-2.692-1.129-2.258c-10.766,1.563-21.705,3.299-32.818,5.209V52.024z M215.832,57.147
			c-5.122,8.943-10.679,17.798-16.496,26.741c-3.039,4.515-2.778,4.862,0.607,1.129c8.77-10.158,17.799-22.661,27.176-37.42
			c1.91-3.213,1.997-3.299,0.174-3.126h-0.261c-0.087,0.087-0.261,0.087-0.434,0.087c-1.997,0.087-3.474,0.347-4.603,2.344
			C220,50.114,218.003,53.587,215.832,57.147z M226.685,41.085l2.605-0.261c1.823,0,2.083-0.347,3.473-2.604
			c6.425-11.026,10.853-20.75,13.37-29.172c-3.125,3.473-8.508,11.721-16.235,24.658c-0.348,0.607-0.694,1.128-1.042,1.736
			c-0.434,0.781-0.955,1.563-1.389,2.344C226.338,39.782,225.644,41.171,226.685,41.085z"/>
		<path fill="#FFF" d="M227.035,67.826c-0.087-2.778,0.694-4.775,2.518-5.904c1.823-1.129,3.907-0.782,6.425,1.128
			c1.823,2.084,2.604,5.209,0.955,9.29c-0.694,1.389-0.607,1.997,0.868,2.691c4.602,1.997,7.728,4.341,9.464,7.033
			s0.955,6.165-2.345,10.505c-1.736,2.258-3.386,5.036-4.948,8.335c-1.563,3.213-2.084,6.078-1.477,8.596
			c1.737,5.209,17.278-3.646,24.658-9.03c2.431-2.083,3.473-0.347,1.91,1.216c-7.728,6.772-14.587,10.853-20.751,12.242
			s-9.811,0.087-11.026-3.907c-1.216-3.994,1.649-10.679,8.683-19.969c1.997-2.691,2.257-4.949,0.868-6.599
			c-1.39-1.736-3.474-3.386-6.338-4.949c-0.087-0.087-0.174-0.087-0.261-0.174c-0.607-0.434-1.129-0.521-1.563-0.434
			c-0.782,0.087-2.519,2.778-3.213,3.56c-2.865,3.56-4.602,1.303-4.254-0.521c0.173-0.608,0.434-0.869,0.868-0.955
			c0.434-0.087,1.215-0.782,2.518-2.258c1.129-1.649,0.348-2.865-0.781-4.167C228.164,71.56,227.296,69.649,227.035,67.826z
			 M230.942,67.392c0.173,0.781,1.563,4.167,2.604,4.167c0.26,0,0.26-0.347,0.26-0.695c0.087-0.26,0.087-0.434,0.174-0.694
			C234.676,66.003,230.769,61.749,230.942,67.392z"/>
		<path fill="#FFF" d="M271.925,85.451c0.261-0.434,0.435-0.695,0.607-0.868c-1.389-2.605,5.73-7.728,7.294-5.296
			c0.781,1.302,0.086,2.431-0.695,3.473c-0.087,0.086-0.26,0.26-0.347,0.434c-2.171,3.125-4.602,6.598-7.207,10.505
			c-2.518,3.82-4.428,7.033-5.729,9.637c-0.955,2.257-0.348,3.473,1.823,3.733c2.257,0.261,5.122-0.087,8.682-1.042
			s6.859-1.91,9.812-2.952c3.038-1.129,4.775-1.823,5.383-2.171c1.823-1.042,3.039,0.869,0.781,2.431
			c-3.733,2.084-8.683,3.994-14.76,5.73c-5.991,1.736-10.332,2.604-12.937,2.604C253.345,111.671,268.104,90.661,271.925,85.451z
			 M278.784,74.945c-0.348-0.955,1.128-1.563,1.997-2.083c0.434-0.087,0.694-0.26,0.694-0.347c0.087-1.302,1.129-2.171,2.518-2.084
			C290.505,70.778,280.521,79.113,278.784,74.945z"/>
		<path fill="#FFF" d="M295.368,99.69c-2.431,4.081-3.819,7.293-4.167,9.55c0,1.476,1.303,1.91,3.907,1.216c2.691-0.608,5.816-1.823,9.377-3.473
			c3.646-1.736,6.858-3.386,9.724-5.036c2.865-1.649,4.515-2.604,4.949-2.952c2.691-1.91,3.733,0,1.997,1.563
			c-1.65,1.302-4.515,3.212-8.683,5.644s-8.509,4.515-12.937,6.165c-4.428,1.649-7.901,1.997-10.332,1.042
			c-2.518-0.955-2.778-4.167-0.955-9.637c1.563-4.081,4.255-8.508,7.988-13.197c3.733-4.775,7.206-7.554,10.244-8.422
			c1.39-0.26,2.519,0,3.387,0.694c0.955,0.695,1.476,1.65,1.736,2.778c-0.694,3.82-5.123,5.296-6.338,3.56
			c-0.087-0.174-0.087-0.348-0.174-0.434c-0.174-0.695-0.435-0.868-2.345,1.042C300.317,92.223,297.887,95.522,295.368,99.69z"/>
		<path fill="#FFF" d="M328.189,85.451c0.261-0.434,0.435-0.695,0.607-0.868c-1.389-2.605,5.73-7.728,7.294-5.296
			c0.781,1.302,0.086,2.431-0.695,3.473c-0.087,0.086-0.26,0.26-0.347,0.434c-2.171,3.125-4.602,6.598-7.207,10.505
			c-2.518,3.82-4.428,7.033-5.729,9.637c-0.955,2.257-0.348,3.473,1.823,3.733c2.257,0.261,5.122-0.087,8.682-1.042
			s6.859-1.91,9.812-2.952c3.038-1.129,4.775-1.823,5.383-2.171c1.823-1.042,3.039,0.869,0.781,2.431
			c-3.733,2.084-8.683,3.994-14.76,5.73c-5.991,1.736-10.332,2.604-12.937,2.604C309.609,111.671,324.369,90.661,328.189,85.451z
			 M335.049,74.945c-0.348-0.955,1.128-1.563,1.996-2.083c0.435-0.087,0.695-0.26,0.695-0.347c0.087-1.302,1.129-2.171,2.518-2.084
			C346.77,70.778,336.785,79.113,335.049,74.945z"/>
		<path fill="#FFF" d="M393.308,100.905c-2.17,1.303-5.035,2.605-8.508,3.907c-3.387,1.215-6.512,1.563-9.203,1.129
			c-2.692-0.521-4.168-2.692-4.255-6.599v-0.434c0.087-1.65,0-1.563-1.649-0.521c-8.942,5.817-15.541,9.463-19.796,10.939
			c-4.167,1.476-6.599,1.476-7.38,0.174c-0.955-1.823,0.261-4.688,3.474-8.596c3.212-3.907,7.38-7.64,12.502-11.2
			c5.123-3.56,10.071-5.644,14.76-6.338c4.688-0.781,7.988,1.129,9.897,5.557c0.348,1.129-0.521,2.171-1.649,2.518
			s-2.865-0.695-3.473-1.823c0-0.261,0.174-0.434,0.261-0.695c0.087-0.26,0.26-0.434,0.173-0.694
			c-1.476-1.997-3.906-2.257-7.466-0.868c-3.561,1.389-7.294,3.56-11.2,6.512c-3.907,2.952-7.293,5.73-9.985,8.421
			c-2.691,2.605-3.993,4.167-3.819,4.775c0.26,0.608,2.518-0.347,6.858-2.865c4.341-2.518,11.461-7.119,21.358-13.978
			c1.042-0.608,2.258-0.435,2.952,0.607c0.434,0.695,0.434,1.389,0.087,2.084c-2.171,4.775-2.432,7.64-0.781,8.769
			c1.736,1.128,4.167,1.215,7.38,0.26c3.212-0.955,5.99-2.083,8.335-3.386C395.305,96.912,396.086,98.909,393.308,100.905z"/>
	</g>
	<path fill="#FFF" d="M279.131,73.667l5.388-5.875c0,0,5.036-2.414,4.278,1.282s-7.028,6.593-7.028,6.593L279.131,73.667z"/>
</g>
<g>
	<path fill="#FFF" d="M369.601,173.412c-3.907-0.261-7.38-1.39-10.506-3.387s-4.602-4.948-4.341-8.855c1.041-7.033,6.077-14.065,15.02-21.271
		c9.03-7.206,19.97-13.805,32.732-19.969c12.763-6.164,25.353-11.287,37.768-15.194c12.416-3.994,22.574-6.338,30.475-6.946
		c23.182-1.649,38.983,7.033,29.954,31.777c-3.733,9.897-9.724,19.188-17.973,27.783c-8.248,8.596-17.277,16.235-27.262,22.747
		c-9.897,6.512-19.361,11.635-28.478,15.368c-0.261,0.087-0.435,0.087-0.608,0.174c-1.997,0.694-2.257,0.955-0.26,2.257
		c3.038,2.171,6.685,4.949,10.853,8.161c15.889,12.242,38.028,29.173,51.833,29.347c2.778,0,3.126,2.778,0,2.778
		c-15.889-0.087-40.025-17.799-57.043-30.215c-3.733-2.691-7.032-5.122-9.897-7.119c-0.607-0.435-1.129-0.868-1.563-1.129
		c-1.39-1.216-1.736-1.216-3.646-0.694c-0.435,0.087-0.868,0.261-1.477,0.348c-4.948,0.955-8.161,0.607-9.724-1.042
		c-1.477-1.65-1.823-3.474-1.042-5.47c0.781-2.084,2.258-3.3,4.428-3.561c2.518,0,5.644,1.303,7.728,2.605
		c0.347,0.26,0.694,0.434,0.955,0.521c1.736,1.042,1.823,1.042,3.386,0.348c0.348-0.087,0.868-0.348,1.477-0.608
		c11.46-4.341,22.921-10.592,34.295-18.667c11.46-8.161,21.011-17.017,28.738-26.654c5.99-7.64,10.071-14.934,12.154-21.965
		c2.171-7.033,1.216-12.763-2.691-17.018c-3.906-4.254-11.808-6.078-23.789-5.383c-7.38,0.608-17.018,2.865-29.086,6.772
		c-11.981,3.82-24.223,8.682-36.813,14.586c-12.502,5.817-23.182,12.068-32.037,18.753c-8.77,6.686-13.718,13.11-14.76,19.361
		c-0.261,5.817,12.763,8.683,13.457,5.383c0.348-1.302,1.477-1.649,2.604-1.563c2.778,0.521,6.599,2.431,3.994,5.557
		C376.459,172.977,373.507,173.671,369.601,173.412z M405.371,161.864c3.213-5.122,6.164-10.332,9.029-15.715
		c0.608-1.042,0.694-1.563-0.26-1.823c-2.084-0.694-1.824-2.084-0.782-3.82c1.563-2.778,8.856-11.46,12.329-8.161
		c0.955,0.955,0.868,2.691,0.261,3.733c-3.213,5.73-6.512,11.374-9.984,16.931l-2.084,3.386c-1.216,1.91-3.387,5.383-6.512,10.332
		c-4.862,7.554-10.593,16.583-17.104,27.089c-6.512,10.505-12.415,20.056-17.538,28.738c-5.122,8.769-7.9,14.325-8.509,16.756
		c-0.086,1.129-0.607,2.432-2.083,2.345c-1.129-0.261-1.129-1.649-0.782-2.778v-0.435c0.608-2.951,2.952-8.161,7.033-15.541
		c4.08-7.38,8.855-15.454,14.152-24.137c5.296-8.682,10.158-16.409,14.412-23.269c3.213-5.122,5.557-8.855,7.032-11.286
		C404.416,163.426,404.937,162.645,405.371,161.864z M411.622,195.291c0.868,0,1.39,0,0.261-0.521
		c-0.087-0.087-0.261-0.174-0.521-0.261c-1.215-0.694-3.212-1.736-2.864,0c0.347,0.694,1.736,0.781,2.344,0.781H411.622z"/>
	<path fill="#FFF" d="M485.256,181.312c-0.348,0.087-0.868,0.174-0.955,0.521c-2.952,3.994-8.856,15.281-3.3,15.281
		c4.429-0.435,9.464-2.604,15.107-6.512s10.419-7.554,14.499-10.939c0.781-0.608,1.39-1.129,1.997-1.563
		c3.039-2.692,8.942-6.512,10.767-3.647c0.086,1.39-0.174,3.126-0.782,5.21c-3.56,15.28,6.599,11.634,17.278,7.119
		c3.473-1.736,3.473,0.955,0.955,2.171c-12.068,6.251-25.353,8.248-23.616-5.557c0.608-4.081,0-3.994-3.473-0.955
		c-0.087,0.087-0.174,0.087-0.261,0.174c-0.434,0.434-0.955,0.868-1.563,1.302c-4.081,3.56-8.856,7.12-14.326,10.68
		s-10.766,5.557-15.888,5.99c-1.823,0.087-3.474-0.26-4.775-0.955c-6.599-4.428,0.26-15.367,3.646-20.75
		c0.26-0.521,0.521-0.955,0.781-1.39c1.129-1.736,3.386-2.691,4.775-2.431c1.823,0.174,3.212,1.389-0.348,5.99
		C485.689,181.138,485.516,181.225,485.256,181.312z"/>
	<path fill="#FFF" d="M549.161,172.89c0.261-0.434,0.435-0.694,0.607-0.868c-1.389-2.604,5.73-7.728,7.294-5.296
		c0.781,1.302,0.086,2.431-0.695,3.473c-0.087,0.087-0.26,0.261-0.347,0.435c-2.171,3.125-4.602,6.598-7.207,10.505
		c-2.518,3.82-4.428,7.033-5.729,9.638c-0.955,2.257-0.348,3.473,1.823,3.733c2.257,0.261,5.122-0.087,8.682-1.042
		s6.859-1.91,9.812-2.952c3.038-1.129,4.775-1.823,5.383-2.171c1.823-1.041,3.039,0.869,0.781,2.432
		c-3.733,2.084-8.683,3.994-14.76,5.73c-5.991,1.736-10.332,2.604-12.937,2.604C530.581,199.111,545.341,178.1,549.161,172.89z
		 M556.021,162.384c-0.348-0.954,1.128-1.563,1.997-2.083c0.434-0.087,0.694-0.261,0.694-0.348c0.087-1.302,1.129-2.171,2.518-2.084
		C567.741,158.217,557.757,166.552,556.021,162.384z"/>
</g>
<g>
	<path fill="#FFF" d="M311.789,161.904c-5.154-4.347,6.14-13.399,9.993-16.491c0.225-0.18,0.403-0.314,0.538-0.448
		c0.493-0.403,0.896-0.717,1.21-0.986c1.927-1.479,1.927-1.479,2.106-3.495c0.045-0.493,0.09-1.21,0.224-2.106
		c0.852-5.602,2.241-9.59,4.168-11.965c1.927-2.375,3.988-3.63,6.095-3.765s3.899,0.403,5.288,1.613
		c1.39,1.21,2.017,2.6,1.793,4.213c-0.358,1.479-1.748,3.316-4.213,5.601c-2.42,2.286-5.288,4.706-8.56,7.306
		c-0.583,0.492-1.075,0.851-1.479,1.075c-1.3,0.852-1.3,0.896-1.3,3.54c0.045,2.958,0.313,5.826,0.896,8.56
		c0.224,1.121,0.537,2.151,0.94,3.183c0.403,1.12,0.762,1.702,1.076,1.837c0.358,0.135,1.075-0.09,2.15-0.627
		c0.045-0.045,0.135-0.045,0.225-0.09c0.941-0.448,7.081-4.885,5.468-5.691c-0.583-0.313-0.763-0.941-0.538-1.479
		c0-0.134,2.644-3.943,3.72,0.359c0.807,3.405-4.751,7.932-8.111,9.008c-4.393,1.702,2.33,3.495,5.333,2.823
		c1.21-0.27,2.017,0.807,0.313,1.255c-2.913,0.672-5.646,0.179-8.111-1.524c-0.135-0.089-0.27-0.179-0.403-0.224
		c-1.658-1.031-1.569-1.031-3.093-0.762c-0.403,0.089-0.896,0.179-1.568,0.269c-2.51,0.448-5.109,0.672-7.843,0.672
		S313.268,163.025,311.789,161.904z M323.53,146.891c-0.045,0.045-0.135,0.09-0.225,0.18c-2.285,1.882-13.489,11.024-10.396,13.489
		c1.12,0.807,2.958,1.12,5.423,0.985c2.509-0.134,4.885-0.403,7.08-0.807c0.538-0.089,0.986-0.134,1.345-0.179
		c1.39-0.18,1.434-0.27,0.941-1.3c-0.135-0.269-0.27-0.583-0.403-0.986c-0.358-1.03-0.673-2.106-0.941-3.271
		c-0.448-2.017-0.717-4.168-0.852-6.408c-0.045-0.762-0.045-1.39,0-1.882c0.045-1.435-0.09-1.435-1.748-0.045L323.53,146.891z
		 M328.37,135.822c-0.09,0.628-0.18,1.165-0.269,1.658c-0.583,3.227-0.448,3.361,2.062,1.255c0.269-0.224,0.582-0.493,0.94-0.762
		c2.734-2.151,5.064-4.123,7.036-5.871c2.017-1.792,3.138-3.182,3.406-4.167c0.538-2.778-8.47-7.439-12.189,3.271
		C328.998,132.327,328.684,133.85,328.37,135.822z"/>
</g>
</svg>
