<?xml version="1.0" encoding="utf-8"?>
<!-- Generator: Adobe Illustrator 16.0.0, SVG Export Plug-In . SVG Version: 6.00 Build 0)  -->
<!DOCTYPE svg PUBLIC "-//W3C//DTD SVG 1.1//EN" "http://www.w3.org/Graphics/SVG/1.1/DTD/svg11.dtd">
<svg version="1.1" id="Layer_1" xmlns="http://www.w3.org/2000/svg" xmlns:xlink="http://www.w3.org/1999/xlink" x="0px" y="0px"
	 width="73.821px" height="90.007px" viewBox="0 0 73.821 90.007" enable-background="new 0 0 73.821 90.007" xml:space="preserve">
<path fill="#FFFFFF" d="M72.485,36.91c0-19.647-15.928-35.575-35.575-35.575c-19.648,0-35.575,15.928-35.575,35.575
	c0,9.197,3.491,17.579,9.219,23.894h-0.001L36.91,88.672l26.356-27.868l0,0C68.995,54.489,72.485,46.107,72.485,36.91z
	 M36.91,51.141c-7.859,0-14.23-6.371-14.23-14.23s6.371-14.23,14.23-14.23s14.23,6.371,14.23,14.23S44.769,51.141,36.91,51.141z"/>
<path fill="#FFFFFF" d="M36.91,90.007c-0.367,0-0.718-0.151-0.97-0.417L9.583,61.722C3.397,54.9,0,46.097,0,36.91
	C0,16.559,16.558,0,36.91,0s36.911,16.559,36.911,36.91c0,9.187-3.397,17.991-9.565,24.791L37.88,89.59
	C37.628,89.855,37.277,90.007,36.91,90.007z M36.91,2.67c-18.88,0-34.24,15.36-34.24,34.24c0,8.522,3.151,16.689,8.873,22.997
	L36.91,86.729l25.387-26.843C67.999,53.6,71.15,45.432,71.15,36.91C71.15,18.03,55.791,2.67,36.91,2.67z M36.91,52.476
	c-8.583,0-15.565-6.982-15.565-15.565c0-8.582,6.982-15.564,15.565-15.564s15.565,6.982,15.565,15.564
	C52.475,45.493,45.493,52.476,36.91,52.476z M36.91,24.016c-7.11,0-12.895,5.784-12.895,12.895S29.8,49.806,36.91,49.806
	c7.111,0,12.895-5.785,12.895-12.896S44.021,24.016,36.91,24.016z"/>
</svg>
