<?xml version="1.0" encoding="utf-8"?>
<!-- Generator: Adobe Illustrator 16.0.0, SVG Export Plug-In . SVG Version: 6.00 Build 0)  -->
<!DOCTYPE svg PUBLIC "-//W3C//DTD SVG 1.1//EN" "http://www.w3.org/Graphics/SVG/1.1/DTD/svg11.dtd">
<svg version="1.1" id="Layer_1" xmlns="http://www.w3.org/2000/svg" xmlns:xlink="http://www.w3.org/1999/xlink" x="0px" y="0px"
	 width="600px" height="600px" viewBox="0 0 600 600" enable-background="new 0 0 600 600" xml:space="preserve">
<g id="telephone-2">
	<path id="XMLID_88_" fill="#686868" d="M590.054,497.947c23.706-38.397-5.258-82.773-62.632-107.138
		c-59.391-25.242-84.771-32.779-105.104,3.976c0,0-6.097,13.136-8.269,21.003C518.059,425.35,582.95,490.486,590.054,497.947z"/>
	<path id="XMLID_87_" fill="#686868" d="M94.552,20.097c0.327,0.466,0.583,0.933,0.822,1.441c0.104,0.234,0.146,0.478,0.207,0.712
		l0.46-0.604c59.343,45.808,84.945,165.424,86.228,171.532c0,0.009,0.027,0.031,0.027,0.042c0.084,0.403,0.165,0.826,0.258,1.218
		c0.122,0.203,0.271,0.403,0.356,0.659c0.111,0.308,0.185,0.634,0.281,0.975c25.119-8.694,45.243-21.416,41.378-42.798
		c-3.987-22.05-34.901-115.938-79.634-145.484c0,0-37.338,1.113-51.268,11.577C93.969,19.577,94.292,19.736,94.552,20.097z"/>
	<path id="XMLID_86_" fill="#686868" d="M572.479,523.339l-0.074,0.054c-0.647-0.698-65.424-71.072-172.806-80.784l0.042-0.477
		l-0.021,0.011c-0.202,0.032-0.392,0.063-0.605,0.105c-0.063,0.021-0.157-0.009-0.23,0c-4.348,7.412-20.377,18.637-36.132,10.889
		c-18.044-8.853-177.463-139.717-210.826-196.118c0,0-15.453-33.87,4.881-44.982c-0.192-0.274-0.372-0.55-0.468-0.933
		c-0.058-0.276-0.131-0.549-0.205-0.814c-0.06-0.276-0.129-0.541-0.203-0.828c-0.016-0.042,0.007-0.084,0-0.138
		c-0.081-0.296-0.142-0.594-0.211-0.891c-0.022-0.138,0.02-0.243,0-0.38l-0.107,0.031c-0.238-1.22-26.133-123.265-83.81-167.758
		l0.276-0.35c-0.452-0.053-0.933-0.18-1.427-0.477c-0.005-0.021-0.02-0.042-0.027-0.074c-0.016,0-0.027-0.022-0.027-0.022
		c-0.803-0.158-1.516-0.635-2.039-1.356c-0.033-0.031-0.042-0.063-0.075-0.105c-0.121-0.181-0.154-0.424-0.238-0.626
		C48.281,56.1-6.083,118.288,2.928,158.331c9.88,43.869,88.574,146.47,115.535,175.644
		c27.293,29.537,110.039,125.829,202.377,186.185c0,0,106.268,70.827,135.889,72.216c28.923,1.347,88.035-30.584,116.044-68.433
		C572.646,523.766,572.552,523.54,572.479,523.339z"/>
</g>
</svg>
